<svg width="62" height="70" viewBox="0 0 62 70" fill="none" xmlns="http://www.w3.org/2000/svg">
<mask id="path-1-inside-1_35_311" fill="white">
<path d="M17.445 68.5191H9.2302L10.2614 62.0894H17.445V68.5191ZM55.676 61.1246L52.0198 56.5621L51.887 56.398C51.9885 56.3668 52.0745 56.2886 52.0745 56.1753V49.1362L55.68 52.1674V61.1244L55.676 61.1246ZM46.383 20.7145L47.0822 20.2457V25.8395L46.383 26.0505V20.7145ZM49.2541 53.1125V46.7609L51.5744 48.7101V56.007L49.2541 53.1125ZM46.3831 26.5734L47.0823 26.3624V31.9444H46.3831V26.5734ZM48.7542 52.4874L47.5823 51.0265V45.3546L48.7542 46.3389V52.4874ZM47.0822 32.4448V38.0971L46.383 37.8314V32.4447L47.0822 32.4448ZM47.0822 50.4058L46.383 49.5308V44.3472L47.0822 44.937V50.4058ZM17.4452 49.3706H12.2577V44.062H17.4452V49.3706ZM11.7577 49.3706H6.5702V44.062H11.7577V49.3706ZM6.3708 50.2885L6.50752 49.8667H11.7184L11.5544 50.8667H6.18326L6.3708 50.2885ZM12.2224 49.8706H17.449V50.8667H12.0662L12.2224 49.8706ZM17.9451 44.062H23.1326V49.3706H17.9451V44.062ZM34.5071 49.3706H29.3196V44.062H34.5071V49.3706ZM28.8196 49.3706H23.6321V44.062H28.8196V49.3706ZM23.8352 50.8667L23.675 49.8706H28.8859L28.9133 49.9526L29.2102 50.8667L23.8352 50.8667ZM29.7336 50.8667L29.7063 50.7846L29.4133 49.8706H34.6008L35.0813 50.8667H29.7336ZM35.007 44.062H40.1945V49.3706H35.007V44.062ZM40.6945 44.062H45.882V49.3706H40.6945V44.062ZM46.382 43.6948V38.3667L47.0812 38.6323V44.2846L46.382 43.6948ZM45.882 43.562H40.6945V38.2534H45.882V43.562ZM40.1945 43.562H35.007V38.2534H40.1945V43.562ZM34.507 43.562H29.3195V38.2534H34.507V43.562ZM28.8195 43.562H23.632V38.2534H28.8195V43.562ZM23.132 43.562H17.9445V38.2534H23.132V43.562ZM17.4445 43.562H12.257V38.2534H17.4445V43.562ZM11.757 43.562H6.5695V38.2534H11.757V43.562ZM5.8039 52.0503L6.02265 51.3667H11.4719L11.2179 52.9487H5.51484L5.8039 52.0503ZM11.9797 51.3667H17.4445V52.9487H11.7257L11.9797 51.3667ZM17.9445 49.8706H23.1672L23.3274 50.8667H17.9446L17.9445 49.8706ZM24.1711 52.9487L23.9172 51.3667H29.3703L29.589 52.0503L29.8781 52.9487L24.1711 52.9487ZM30.4016 52.9487L30.1828 52.2651L29.8938 51.3666H35.3196L36.0813 52.9486L30.4016 52.9487ZM35.6321 50.8667L35.1516 49.8706H40.3039L40.9445 50.8667H35.6321ZM41.5423 50.8667L40.9017 49.8706H46.0111L46.8119 50.8667H41.5423ZM47.5814 44.7026V38.8198L48.7533 39.2612V45.687L47.5814 44.7026ZM47.5814 38.2846V32.4448H48.7533V38.726L47.5814 38.2846ZM47.5814 31.9448V26.2104L48.7533 25.8549V31.9447L47.5814 31.9448ZM45.8822 37.7534H40.6947V32.4448H45.8822V37.7534ZM40.1947 37.7534H35.0072V32.4448H40.1947V37.7534ZM34.5072 37.7534H29.3197V32.4448H34.5072V37.7534ZM28.8197 37.7534H23.6322V32.4448H28.8197V37.7534ZM23.1322 37.7534H17.9447V32.4448H23.1322V37.7534ZM17.4447 37.7534H12.2572V32.4448H17.4447V37.7534ZM11.7572 37.7534H6.5697V32.4448H11.7572V37.7534ZM4.9642 54.6714L5.35873 53.4487H11.1439L10.6635 56.4682H4.39396L4.9642 54.6714ZM11.6478 53.4487H17.4486V56.4682H11.1674L11.6478 53.4487ZM17.9447 51.3667H23.4095L23.6634 52.9487H17.9446L17.9447 51.3667ZM24.7338 56.4683L24.2494 53.4488H30.0346L30.4292 54.6715L31.0034 56.4684L24.7338 56.4683ZM31.5307 56.4683L31.1362 55.2456L30.562 53.4487H36.3236L37.7767 56.4682L31.5307 56.4683ZM36.6362 52.9488L35.8745 51.3668H41.269L41.9565 52.4371L42.2846 52.9488L36.6362 52.9488ZM42.8784 52.9488L42.1909 51.8785L41.8628 51.3667H47.2144L48.4839 52.9487L42.8784 52.9488ZM49.2534 46.109V39.4528L51.5737 40.3317V48.0622L49.2534 46.109ZM49.2534 38.9176V32.4449H51.5737V39.7965L49.2534 38.9176ZM52.0737 32.4449H55.6792V41.3472L52.0737 39.9839V32.4449ZM52.0737 31.9449V24.8551L55.6792 23.7653V31.945L52.0737 31.9449ZM51.5737 31.9449H49.2534V25.7066L51.5737 25.0073V31.9449ZM49.2534 25.1871V18.8004L51.5737 17.2496V24.484L49.2534 25.1871ZM48.7534 25.3355L47.5815 25.691V19.9137L48.7534 19.1324V25.3355ZM45.8823 31.9449H40.6948V26.6363H45.8823V31.9449ZM40.1948 31.9449H35.0073V26.6363H40.1948V31.9449ZM34.5073 31.9449H29.3198V26.6363H34.5073V31.9449ZM28.8198 31.9449H23.6323V26.6363H28.8198V31.9449ZM23.1323 31.9449H17.9448V26.6363H23.1323V31.9449ZM17.4448 31.9449H12.2573V26.6363H17.4448V31.9449ZM11.7573 31.9449H6.5698V26.6363H11.7573V31.9449ZM3.558 59.0465L4.22206 56.9684H10.5737L9.83147 61.5856H2.74167L3.558 59.0465ZM11.0814 56.9684H17.4447V61.5856H10.3392L11.0814 56.9684ZM17.9447 53.4489H23.7416L24.226 56.4684H17.9448L17.9447 53.4489ZM25.5541 61.5856L24.8158 56.9684H31.1674L31.8315 59.0465L32.644 61.5856H25.5541ZM33.1713 61.5856L32.5072 59.5075L31.6947 56.9684H38.0189L40.2416 61.5856H33.1713ZM38.3315 56.4684L36.8784 53.4489H42.605L44.5386 56.4684H38.3315ZM45.1323 56.4684L43.1987 53.4489H48.8315C48.851 53.4684 48.8823 53.4684 48.9096 53.4802L51.3041 56.4646L45.1323 56.4684ZM52.0737 48.484V40.5231L55.6792 41.8864V51.5153L52.0737 48.484ZM56.1753 42.0699L61.23 43.984V56.179L56.1753 51.929V42.0699ZM56.1753 41.5387V32.4449H61.23V43.4489L56.1753 41.5387ZM56.1753 31.9449V23.6168L61.23 22.0895V31.945L56.1753 31.9449ZM61.2339 21.5659L56.1792 23.0932L56.1753 14.1791L61.23 10.8041L61.2339 21.5659ZM55.6753 23.2456L52.0698 24.3354V16.9174L55.6753 14.5112V23.2456ZM52.0737 16.3159V9.49555L55.6792 6.08535V13.9096L52.0737 16.3159ZM51.5737 16.6479L49.2534 18.1987V12.1635L51.5737 9.96818V16.6479ZM48.7534 18.5307L47.5815 19.3119V13.7455L48.7534 12.6361V18.5307ZM47.0815 19.644L46.3823 20.1127V14.8783L47.0815 14.2143V19.644ZM45.8823 26.1401H40.6948V20.8315H45.8823V26.1401ZM40.1948 26.1401H35.0073V20.8315H40.1948V26.1401ZM34.5073 26.1401H29.3198V20.8315H34.5073V26.1401ZM28.8198 26.1401H23.6323V20.8315H28.8198V26.1401ZM23.1323 26.1401H17.9448V20.8315H23.1323V26.1401ZM17.4448 26.1401H12.2573V20.8315H17.4448V26.1401ZM11.7573 26.1401H6.5698V20.8315H11.7573V26.1401ZM1.7067 64.8275L2.58561 62.0853H9.75751L8.72631 68.515H0.523209L1.7067 64.8275ZM17.9447 56.9681H24.3041L25.0424 61.5853H17.9408L17.9447 56.9681ZM25.6361 62.0853H32.808L33.6869 64.8275L34.8705 68.515H26.6713L25.6361 62.0853ZM35.3939 68.5189L34.515 65.7767L33.3314 62.0892H40.4759L43.5697 68.5189H35.3939ZM40.7923 61.5853L38.5696 56.9681H44.8587L47.8235 61.5853H40.7923ZM48.4173 61.5853L45.4525 56.9681H51.7025L55.4056 61.5853H48.4173ZM56.1751 52.5853L61.2298 56.8353V68.0543L56.1751 61.7457V52.5853ZM61.2337 10.2023L56.179 13.5773V5.61248L61.2337 0.831282V10.2023ZM45.8817 20.3313H40.6942V15.0227H45.8817V20.3313ZM40.1942 20.3313H35.0067V15.0227H40.1942V20.3313ZM34.5067 20.3313H29.3192V15.0227H34.5067V20.3313ZM28.8192 20.3313H23.6317V15.0227H28.8192V20.3313ZM23.1317 20.3313H17.9442V15.0227H23.1317V20.3313ZM17.4442 20.3313H12.2567V15.0227H17.4442V20.3313ZM11.7567 20.3313H6.5692V15.0227H11.7567V20.3313ZM17.944 62.0855H25.1276L26.1588 68.5152H17.944V62.0855ZM44.124 68.5191L41.0302 62.0894H48.1396L52.2646 68.5191H44.124ZM52.8623 68.5191L48.7373 62.0894H55.7178C55.7568 62.1714 55.8272 62.2339 55.9248 62.2378L60.96 68.519L52.8623 68.5151L52.8623 68.5191Z"/>
</mask>
<path d="M17.445 68.5191H9.2302L10.2614 62.0894H17.445V68.5191ZM55.676 61.1246L52.0198 56.5621L51.887 56.398C51.9885 56.3668 52.0745 56.2886 52.0745 56.1753V49.1362L55.68 52.1674V61.1244L55.676 61.1246ZM46.383 20.7145L47.0822 20.2457V25.8395L46.383 26.0505V20.7145ZM49.2541 53.1125V46.7609L51.5744 48.7101V56.007L49.2541 53.1125ZM46.3831 26.5734L47.0823 26.3624V31.9444H46.3831V26.5734ZM48.7542 52.4874L47.5823 51.0265V45.3546L48.7542 46.3389V52.4874ZM47.0822 32.4448V38.0971L46.383 37.8314V32.4447L47.0822 32.4448ZM47.0822 50.4058L46.383 49.5308V44.3472L47.0822 44.937V50.4058ZM17.4452 49.3706H12.2577V44.062H17.4452V49.3706ZM11.7577 49.3706H6.5702V44.062H11.7577V49.3706ZM6.3708 50.2885L6.50752 49.8667H11.7184L11.5544 50.8667H6.18326L6.3708 50.2885ZM12.2224 49.8706H17.449V50.8667H12.0662L12.2224 49.8706ZM17.9451 44.062H23.1326V49.3706H17.9451V44.062ZM34.5071 49.3706H29.3196V44.062H34.5071V49.3706ZM28.8196 49.3706H23.6321V44.062H28.8196V49.3706ZM23.8352 50.8667L23.675 49.8706H28.8859L28.9133 49.9526L29.2102 50.8667L23.8352 50.8667ZM29.7336 50.8667L29.7063 50.7846L29.4133 49.8706H34.6008L35.0813 50.8667H29.7336ZM35.007 44.062H40.1945V49.3706H35.007V44.062ZM40.6945 44.062H45.882V49.3706H40.6945V44.062ZM46.382 43.6948V38.3667L47.0812 38.6323V44.2846L46.382 43.6948ZM45.882 43.562H40.6945V38.2534H45.882V43.562ZM40.1945 43.562H35.007V38.2534H40.1945V43.562ZM34.507 43.562H29.3195V38.2534H34.507V43.562ZM28.8195 43.562H23.632V38.2534H28.8195V43.562ZM23.132 43.562H17.9445V38.2534H23.132V43.562ZM17.4445 43.562H12.257V38.2534H17.4445V43.562ZM11.757 43.562H6.5695V38.2534H11.757V43.562ZM5.8039 52.0503L6.02265 51.3667H11.4719L11.2179 52.9487H5.51484L5.8039 52.0503ZM11.9797 51.3667H17.4445V52.9487H11.7257L11.9797 51.3667ZM17.9445 49.8706H23.1672L23.3274 50.8667H17.9446L17.9445 49.8706ZM24.1711 52.9487L23.9172 51.3667H29.3703L29.589 52.0503L29.8781 52.9487L24.1711 52.9487ZM30.4016 52.9487L30.1828 52.2651L29.8938 51.3666H35.3196L36.0813 52.9486L30.4016 52.9487ZM35.6321 50.8667L35.1516 49.8706H40.3039L40.9445 50.8667H35.6321ZM41.5423 50.8667L40.9017 49.8706H46.0111L46.8119 50.8667H41.5423ZM47.5814 44.7026V38.8198L48.7533 39.2612V45.687L47.5814 44.7026ZM47.5814 38.2846V32.4448H48.7533V38.726L47.5814 38.2846ZM47.5814 31.9448V26.2104L48.7533 25.8549V31.9447L47.5814 31.9448ZM45.8822 37.7534H40.6947V32.4448H45.8822V37.7534ZM40.1947 37.7534H35.0072V32.4448H40.1947V37.7534ZM34.5072 37.7534H29.3197V32.4448H34.5072V37.7534ZM28.8197 37.7534H23.6322V32.4448H28.8197V37.7534ZM23.1322 37.7534H17.9447V32.4448H23.1322V37.7534ZM17.4447 37.7534H12.2572V32.4448H17.4447V37.7534ZM11.7572 37.7534H6.5697V32.4448H11.7572V37.7534ZM4.9642 54.6714L5.35873 53.4487H11.1439L10.6635 56.4682H4.39396L4.9642 54.6714ZM11.6478 53.4487H17.4486V56.4682H11.1674L11.6478 53.4487ZM17.9447 51.3667H23.4095L23.6634 52.9487H17.9446L17.9447 51.3667ZM24.7338 56.4683L24.2494 53.4488H30.0346L30.4292 54.6715L31.0034 56.4684L24.7338 56.4683ZM31.5307 56.4683L31.1362 55.2456L30.562 53.4487H36.3236L37.7767 56.4682L31.5307 56.4683ZM36.6362 52.9488L35.8745 51.3668H41.269L41.9565 52.4371L42.2846 52.9488L36.6362 52.9488ZM42.8784 52.9488L42.1909 51.8785L41.8628 51.3667H47.2144L48.4839 52.9487L42.8784 52.9488ZM49.2534 46.109V39.4528L51.5737 40.3317V48.0622L49.2534 46.109ZM49.2534 38.9176V32.4449H51.5737V39.7965L49.2534 38.9176ZM52.0737 32.4449H55.6792V41.3472L52.0737 39.9839V32.4449ZM52.0737 31.9449V24.8551L55.6792 23.7653V31.945L52.0737 31.9449ZM51.5737 31.9449H49.2534V25.7066L51.5737 25.0073V31.9449ZM49.2534 25.1871V18.8004L51.5737 17.2496V24.484L49.2534 25.1871ZM48.7534 25.3355L47.5815 25.691V19.9137L48.7534 19.1324V25.3355ZM45.8823 31.9449H40.6948V26.6363H45.8823V31.9449ZM40.1948 31.9449H35.0073V26.6363H40.1948V31.9449ZM34.5073 31.9449H29.3198V26.6363H34.5073V31.9449ZM28.8198 31.9449H23.6323V26.6363H28.8198V31.9449ZM23.1323 31.9449H17.9448V26.6363H23.1323V31.9449ZM17.4448 31.9449H12.2573V26.6363H17.4448V31.9449ZM11.7573 31.9449H6.5698V26.6363H11.7573V31.9449ZM3.558 59.0465L4.22206 56.9684H10.5737L9.83147 61.5856H2.74167L3.558 59.0465ZM11.0814 56.9684H17.4447V61.5856H10.3392L11.0814 56.9684ZM17.9447 53.4489H23.7416L24.226 56.4684H17.9448L17.9447 53.4489ZM25.5541 61.5856L24.8158 56.9684H31.1674L31.8315 59.0465L32.644 61.5856H25.5541ZM33.1713 61.5856L32.5072 59.5075L31.6947 56.9684H38.0189L40.2416 61.5856H33.1713ZM38.3315 56.4684L36.8784 53.4489H42.605L44.5386 56.4684H38.3315ZM45.1323 56.4684L43.1987 53.4489H48.8315C48.851 53.4684 48.8823 53.4684 48.9096 53.4802L51.3041 56.4646L45.1323 56.4684ZM52.0737 48.484V40.5231L55.6792 41.8864V51.5153L52.0737 48.484ZM56.1753 42.0699L61.23 43.984V56.179L56.1753 51.929V42.0699ZM56.1753 41.5387V32.4449H61.23V43.4489L56.1753 41.5387ZM56.1753 31.9449V23.6168L61.23 22.0895V31.945L56.1753 31.9449ZM61.2339 21.5659L56.1792 23.0932L56.1753 14.1791L61.23 10.8041L61.2339 21.5659ZM55.6753 23.2456L52.0698 24.3354V16.9174L55.6753 14.5112V23.2456ZM52.0737 16.3159V9.49555L55.6792 6.08535V13.9096L52.0737 16.3159ZM51.5737 16.6479L49.2534 18.1987V12.1635L51.5737 9.96818V16.6479ZM48.7534 18.5307L47.5815 19.3119V13.7455L48.7534 12.6361V18.5307ZM47.0815 19.644L46.3823 20.1127V14.8783L47.0815 14.2143V19.644ZM45.8823 26.1401H40.6948V20.8315H45.8823V26.1401ZM40.1948 26.1401H35.0073V20.8315H40.1948V26.1401ZM34.5073 26.1401H29.3198V20.8315H34.5073V26.1401ZM28.8198 26.1401H23.6323V20.8315H28.8198V26.1401ZM23.1323 26.1401H17.9448V20.8315H23.1323V26.1401ZM17.4448 26.1401H12.2573V20.8315H17.4448V26.1401ZM11.7573 26.1401H6.5698V20.8315H11.7573V26.1401ZM1.7067 64.8275L2.58561 62.0853H9.75751L8.72631 68.515H0.523209L1.7067 64.8275ZM17.9447 56.9681H24.3041L25.0424 61.5853H17.9408L17.9447 56.9681ZM25.6361 62.0853H32.808L33.6869 64.8275L34.8705 68.515H26.6713L25.6361 62.0853ZM35.3939 68.5189L34.515 65.7767L33.3314 62.0892H40.4759L43.5697 68.5189H35.3939ZM40.7923 61.5853L38.5696 56.9681H44.8587L47.8235 61.5853H40.7923ZM48.4173 61.5853L45.4525 56.9681H51.7025L55.4056 61.5853H48.4173ZM56.1751 52.5853L61.2298 56.8353V68.0543L56.1751 61.7457V52.5853ZM61.2337 10.2023L56.179 13.5773V5.61248L61.2337 0.831282V10.2023ZM45.8817 20.3313H40.6942V15.0227H45.8817V20.3313ZM40.1942 20.3313H35.0067V15.0227H40.1942V20.3313ZM34.5067 20.3313H29.3192V15.0227H34.5067V20.3313ZM28.8192 20.3313H23.6317V15.0227H28.8192V20.3313ZM23.1317 20.3313H17.9442V15.0227H23.1317V20.3313ZM17.4442 20.3313H12.2567V15.0227H17.4442V20.3313ZM11.7567 20.3313H6.5692V15.0227H11.7567V20.3313ZM17.944 62.0855H25.1276L26.1588 68.5152H17.944V62.0855ZM44.124 68.5191L41.0302 62.0894H48.1396L52.2646 68.5191H44.124ZM52.8623 68.5191L48.7373 62.0894H55.7178C55.7568 62.1714 55.8272 62.2339 55.9248 62.2378L60.96 68.519L52.8623 68.5151L52.8623 68.5191Z" fill="white"/>
<path d="M61.699 0.164062L61.5585 0.216728L61.5585 0.216732L61.699 0.164062ZM61.6638 0.0742188L61.7777 -0.0234006L61.7328 -0.0757813H61.6638V0.0742188ZM61.6599 0.0742188L61.5539 0.180287L61.5978 0.224219H61.6599V0.0742188ZM61.5818 0.0390625L61.5146 0.173458L61.5227 0.176933L61.5818 0.0390625ZM61.3904 0.0351562L61.3377 -0.105442L61.3313 -0.102716L61.3904 0.0351562ZM61.3045 0.0664062L61.2082 -0.0490528L61.2014 -0.0425549L61.3045 0.0664062ZM51.6639 9.18751L51.5607 9.0785L51.5578 9.08144L51.6639 9.18751ZM51.6326 9.21876L51.7357 9.3277L51.748 9.31606L51.7574 9.30196L51.6326 9.21876ZM61.6992 68.8792L61.8334 68.9463L61.8347 68.9434L61.6992 68.8792ZM61.6796 68.6448L61.5455 68.5777L61.5093 68.65L61.5498 68.72L61.6796 68.6448ZM61.7226 68.5432L61.5726 68.5432V68.5432H61.7226ZM61.7304 0.246237L61.5816 0.227633L61.5804 0.23689L61.5804 0.24622L61.7304 0.246237ZM0.878899 65.7769L0.736076 65.731L0.736056 65.7311L0.878899 65.7769ZM61.699 0.164062L61.8394 0.111397C61.8393 0.110966 61.8386 0.109124 61.837 0.102964C61.8361 0.0992492 61.8328 0.0860768 61.8299 0.075854C61.8226 0.0508688 61.8091 0.0132418 61.7777 -0.0234006L61.6638 0.0742188L61.5499 0.171838C61.542 0.16254 61.5402 0.15421 61.5418 0.159498C61.5422 0.161047 61.5428 0.163101 61.5436 0.166375C61.5441 0.168411 61.5457 0.174674 61.5467 0.178409C61.5491 0.187751 61.5528 0.201534 61.5585 0.216728L61.699 0.164062ZM61.6638 0.0742188V-0.0757813H61.6599V0.0742188V0.224219H61.6638V0.0742188ZM61.6599 0.0742188L61.766 -0.03185C61.7321 -0.0657857 61.6935 -0.080688 61.6742 -0.0875502C61.6649 -0.0908764 61.6535 -0.0944704 61.6495 -0.0957929C61.6434 -0.0977812 61.6414 -0.0985695 61.6409 -0.0988082L61.5818 0.0390625L61.5227 0.176933C61.5358 0.182554 61.548 0.186649 61.5561 0.189299C61.5582 0.189989 61.5602 0.190649 61.562 0.191218C61.5639 0.191817 61.5654 0.192307 61.5669 0.192796C61.5699 0.193773 61.5718 0.194437 61.5733 0.194972C61.5766 0.19613 61.5753 0.19588 61.5721 0.19412C61.5684 0.192171 61.5615 0.187895 61.5539 0.180287L61.6599 0.0742188ZM61.5818 0.0390625L61.6489 -0.0951016C61.6448 -0.0971519 61.6403 -0.0996545 61.6314 -0.104612C61.6238 -0.108875 61.6123 -0.115264 61.5999 -0.1213C61.5755 -0.133119 61.5348 -0.15 61.4841 -0.15V0V0.15C61.4686 0.15 61.4611 0.144837 61.469 0.148644C61.4727 0.15042 61.4771 0.15282 61.4852 0.157347C61.4921 0.161178 61.5032 0.167464 61.5147 0.173227L61.5818 0.0390625ZM61.4841 0V-0.15H61.4802V0V0.15H61.4841V0ZM61.4802 0V-0.15C61.4273 -0.15 61.3872 -0.131576 61.3649 -0.120049C61.3578 -0.116333 61.3419 -0.107534 61.3416 -0.107352C61.3367 -0.104756 61.3363 -0.104743 61.3377 -0.105293L61.3904 0.0351562L61.4431 0.175605C61.4602 0.169196 61.4743 0.161885 61.4838 0.15679C61.4883 0.154336 61.4931 0.151691 61.4959 0.15014C61.4992 0.148304 61.5012 0.147231 61.5028 0.146416C61.5088 0.143295 61.498 0.15 61.4802 0.15V0ZM61.3904 0.0351562L61.3313 -0.102716C61.3346 -0.10412 61.3356 -0.104136 61.331 -0.102932C61.3288 -0.102358 61.3263 -0.101755 61.3223 -0.100799C61.3188 -0.0999487 61.3137 -0.0987351 61.3085 -0.0973907C61.2901 -0.0926376 61.2474 -0.0812751 61.2084 -0.0488241L61.3045 0.0664062L61.4005 0.181637C61.3921 0.188647 61.3848 0.192074 61.3817 0.193357C61.3791 0.194457 61.3786 0.194344 61.3834 0.193093C61.3858 0.192484 61.3884 0.191866 61.3924 0.190886C61.3961 0.190011 61.4012 0.188783 61.4065 0.187404C61.4169 0.184701 61.4325 0.180292 61.4495 0.173029L61.3904 0.0351562ZM61.3045 0.0664062L61.2014 -0.0425549L51.5608 9.07854L51.6639 9.18751L51.767 9.29647L61.4075 0.175367L61.3045 0.0664062ZM51.6639 9.18751L51.5578 9.08144C51.5578 9.08143 51.5576 9.0816 51.5572 9.08199C51.5568 9.0824 51.5562 9.08297 51.5552 9.08383C51.5547 9.08425 51.5488 9.08946 51.5459 9.09214C51.5379 9.09935 51.5221 9.11412 51.5078 9.13556L51.6326 9.21876L51.7574 9.30196C51.754 9.30706 51.7509 9.31066 51.7491 9.31264C51.7474 9.31446 51.7465 9.31521 51.7477 9.31412C51.7482 9.3136 51.749 9.31293 51.7503 9.31177C51.7514 9.31079 51.7533 9.30913 51.7551 9.30753C51.7588 9.30418 51.7641 9.29937 51.7699 9.29358L51.6639 9.18751ZM51.6326 9.21876L51.5295 9.10981L45.924 14.4145L46.0271 14.5235L46.1302 14.6324L51.7357 9.3277L51.6326 9.21876ZM61.4726 69.0198V69.1698C61.6283 69.1698 61.7655 69.082 61.8333 68.9463L61.6992 68.8792L61.565 68.8121C61.5469 68.8483 61.5123 68.8698 61.4726 68.8698V69.0198ZM61.6992 68.8792L61.8347 68.9434C61.8961 68.8138 61.8705 68.675 61.8095 68.5696L61.6796 68.6448L61.5498 68.72C61.5748 68.763 61.5725 68.7961 61.5636 68.815L61.6992 68.8792ZM61.6796 68.6448L61.8138 68.7119C61.8148 68.7099 61.8166 68.7067 61.8216 68.6984C61.8256 68.6916 61.8329 68.6797 61.8396 68.6671C61.8531 68.6415 61.8726 68.5984 61.8726 68.5432H61.7226H61.5726C61.5726 68.5272 61.5785 68.5191 61.5744 68.5268C61.5723 68.5307 61.5698 68.535 61.5643 68.5441C61.5598 68.5516 61.5523 68.564 61.5455 68.5777L61.6796 68.6448ZM61.7226 68.5432L61.8726 68.5433L61.8804 0.246254L61.7304 0.246237L61.5804 0.24622L61.5726 68.5432L61.7226 68.5432ZM61.7304 0.246237L61.8793 0.264841C61.887 0.203237 61.865 0.15683 61.8525 0.133807C61.8495 0.128242 61.8466 0.123199 61.8446 0.119826C61.8423 0.115858 61.8412 0.113993 61.84 0.111887C61.8379 0.108162 61.8384 0.108746 61.8394 0.111393L61.699 0.164062L61.5585 0.216732C61.5654 0.235004 61.5733 0.249766 61.5788 0.259495C61.5814 0.264116 61.5842 0.268798 61.5856 0.271286C61.5874 0.274369 61.5882 0.275692 61.5886 0.276492C61.5896 0.278234 61.5866 0.273261 61.5842 0.26436C61.5829 0.259623 61.5817 0.253871 61.5812 0.247307C61.5806 0.240698 61.5808 0.234069 61.5816 0.227633L61.7304 0.246237ZM2.0625 62.0894L1.91968 62.0435L0.736076 65.731L0.878899 65.7769L1.02172 65.8227L2.20532 62.1352L2.0625 62.0894ZM0.878899 65.7769L0.736056 65.7311L-0.142843 68.4733L0 68.5191L0.142843 68.5648L1.02174 65.8226L0.878899 65.7769ZM17.445 68.5191V68.8191H17.745V68.5191H17.445ZM9.2302 68.5191L8.93398 68.4716L8.87825 68.8191H9.2302V68.5191ZM10.2614 62.0894V61.7894H10.0057L9.96518 62.0419L10.2614 62.0894ZM17.445 62.0894H17.745V61.7894H17.445V62.0894ZM55.676 61.1246L55.4419 61.3122L55.5355 61.429L55.6852 61.4244L55.676 61.1246ZM52.0198 56.5621L52.2539 56.3745L52.253 56.3733L52.0198 56.5621ZM51.887 56.398L51.7988 56.1113L51.3746 56.2418L51.6538 56.5868L51.887 56.398ZM52.0745 49.1362L52.2675 48.9066L51.7745 48.4921V49.1362H52.0745ZM55.68 52.1674H55.98V52.0277L55.873 51.9378L55.68 52.1674ZM55.68 61.1244L55.6892 61.4243L55.98 61.4154V61.1244H55.68ZM46.383 20.7145L46.2159 20.4653L46.083 20.5544V20.7145H46.383ZM47.0822 20.2457H47.3822V19.6834L46.9152 19.9965L47.0822 20.2457ZM47.0822 25.8395L47.1689 26.1267L47.3822 26.0624V25.8395H47.0822ZM46.383 26.0505H46.083V26.4543L46.4696 26.3377L46.383 26.0505ZM49.2541 53.1125H48.9541V53.2179L49.02 53.3001L49.2541 53.1125ZM49.2541 46.7609L49.4471 46.5312L48.9541 46.117V46.7609H49.2541ZM51.5744 48.7101H51.8744V48.5703L51.7674 48.4804L51.5744 48.7101ZM51.5744 56.007L51.3403 56.1946L51.8744 56.8608V56.007H51.5744ZM46.3831 26.5734L46.2964 26.2861L46.0831 26.3505V26.5734H46.3831ZM47.0823 26.3624H47.3823V25.9586L46.9957 26.0752L47.0823 26.3624ZM47.0823 31.9444V32.2444H47.3823V31.9444H47.0823ZM46.3831 31.9444H46.0831V32.2444H46.3831V31.9444ZM48.7542 52.4874L48.5202 52.6751L49.0542 53.3408V52.4874H48.7542ZM47.5823 51.0265H47.2823V51.1319L47.3483 51.2142L47.5823 51.0265ZM47.5823 45.3546L47.7752 45.1248L47.2823 44.7108V45.3546H47.5823ZM48.7542 46.3389H49.0542V46.1991L48.9471 46.1092L48.7542 46.3389ZM47.0822 32.4448H47.3822V32.1448L47.0822 32.1448L47.0822 32.4448ZM47.0822 38.0971L46.9757 38.3775L47.3822 38.5319V38.0971H47.0822ZM46.383 37.8314H46.083V38.0384L46.2764 38.1119L46.383 37.8314ZM46.383 32.4447L46.383 32.1447L46.083 32.1447V32.4447H46.383ZM47.0822 50.4058L46.8478 50.593L47.3822 51.2617V50.4058H47.0822ZM46.383 49.5308H46.083V49.6359L46.1486 49.718L46.383 49.5308ZM46.383 44.3472L46.5764 44.1179L46.083 43.7016V44.3472H46.383ZM47.0822 44.937H47.3822V44.7976L47.2756 44.7077L47.0822 44.937ZM17.4452 49.3706V49.6706H17.7452V49.3706H17.4452ZM12.2577 49.3706H11.9577V49.6706H12.2577V49.3706ZM12.2577 44.062V43.762H11.9577V44.062H12.2577ZM17.4452 44.062H17.7452V43.762H17.4452V44.062ZM11.7577 49.3706V49.6706H12.0577V49.3706H11.7577ZM6.5702 49.3706H6.2702V49.6706H6.5702V49.3706ZM6.5702 44.062V43.762H6.2702V44.062H6.5702ZM11.7577 44.062H12.0577V43.762H11.7577V44.062ZM6.3708 50.2885L6.65616 50.3811L6.65619 50.381L6.3708 50.2885ZM6.50752 49.8667V49.5667H6.28938L6.22213 49.7742L6.50752 49.8667ZM11.7184 49.8667L12.0145 49.9152L12.0716 49.5667H11.7184V49.8667ZM11.5544 50.8667V51.1667H11.8092L11.8504 50.9152L11.5544 50.8667ZM6.18326 50.8667L5.8979 50.7741L5.77055 51.1667H6.18326V50.8667ZM12.2224 49.8706V49.5706H11.9658L11.926 49.8241L12.2224 49.8706ZM17.449 49.8706H17.749V49.5706H17.449V49.8706ZM17.449 50.8667V51.1667H17.749V50.8667H17.449ZM12.0662 50.8667L11.7698 50.8202L11.7155 51.1667H12.0662V50.8667ZM17.9451 44.062V43.762H17.6451V44.062H17.9451ZM23.1326 44.062H23.4326V43.762H23.1326V44.062ZM23.1326 49.3706V49.6706H23.4326V49.3706H23.1326ZM17.9451 49.3706H17.6451V49.6706H17.9451V49.3706ZM34.5071 49.3706V49.6706H34.8071V49.3706H34.5071ZM29.3196 49.3706H29.0196V49.6706H29.3196V49.3706ZM29.3196 44.062V43.762H29.0196V44.062H29.3196ZM34.5071 44.062H34.8071V43.762H34.5071V44.062ZM28.8196 49.3706V49.6706H29.1196V49.3706H28.8196ZM23.6321 49.3706H23.3321V49.6706H23.6321V49.3706ZM23.6321 44.062V43.762H23.3321V44.062H23.6321ZM28.8196 44.062H29.1196V43.762H28.8196V44.062ZM23.8352 50.8667L23.539 50.9143L23.5796 51.1667L23.8352 51.1667L23.8352 50.8667ZM23.675 49.8706V49.5706H23.323L23.3788 49.9182L23.675 49.8706ZM28.8859 49.8706L29.1705 49.7757L29.1022 49.5706H28.8859V49.8706ZM28.9133 49.9526L29.1986 49.8599L29.1979 49.8577L28.9133 49.9526ZM29.2102 50.8667L29.2102 51.1667L29.623 51.1667L29.4955 50.774L29.2102 50.8667ZM29.7336 50.8667L29.449 50.9615L29.5174 51.1667H29.7336V50.8667ZM29.7063 50.7846L29.4206 50.8762L29.4216 50.8795L29.7063 50.7846ZM29.4133 49.8706V49.5706H29.0021L29.1276 49.9621L29.4133 49.8706ZM34.6008 49.8706L34.871 49.7402L34.7892 49.5706H34.6008V49.8706ZM35.0813 50.8667V51.1667H35.559L35.3515 50.7363L35.0813 50.8667ZM35.007 44.062V43.762H34.707V44.062H35.007ZM40.1945 44.062H40.4945V43.762H40.1945V44.062ZM40.1945 49.3706V49.6706H40.4945V49.3706H40.1945ZM35.007 49.3706H34.707V49.6706H35.007V49.3706ZM40.6945 44.062V43.762H40.3945V44.062H40.6945ZM45.882 44.062H46.182V43.762H45.882V44.062ZM45.882 49.3706V49.6706H46.182V49.3706H45.882ZM40.6945 49.3706H40.3945V49.6706H40.6945V49.3706ZM46.382 43.6948H46.082V43.8342L46.1886 43.9241L46.382 43.6948ZM46.382 38.3667L46.4885 38.0862L46.082 37.9318V38.3667H46.382ZM47.0812 38.6323H47.3812V38.4253L47.1878 38.3518L47.0812 38.6323ZM47.0812 44.2846L46.8878 44.5139L47.3812 44.9301V44.2846H47.0812ZM45.882 43.562V43.862H46.182V43.562H45.882ZM40.6945 43.562H40.3945V43.862H40.6945V43.562ZM40.6945 38.2534V37.9534H40.3945V38.2534H40.6945ZM45.882 38.2534H46.182V37.9534H45.882V38.2534ZM40.1945 43.562V43.862H40.4945V43.562H40.1945ZM35.007 43.562H34.707V43.862H35.007V43.562ZM35.007 38.2534V37.9534H34.707V38.2534H35.007ZM40.1945 38.2534H40.4945V37.9534H40.1945V38.2534ZM34.507 43.562V43.862H34.807V43.562H34.507ZM29.3195 43.562H29.0195V43.862H29.3195V43.562ZM29.3195 38.2534V37.9534H29.0195V38.2534H29.3195ZM34.507 38.2534H34.807V37.9534H34.507V38.2534ZM28.8195 43.562V43.862H29.1195V43.562H28.8195ZM23.632 43.562H23.332V43.862H23.632V43.562ZM23.632 38.2534V37.9534H23.332V38.2534H23.632ZM28.8195 38.2534H29.1195V37.9534H28.8195V38.2534ZM23.132 43.562V43.862H23.432V43.562H23.132ZM17.9445 43.562H17.6445V43.862H17.9445V43.562ZM17.9445 38.2534V37.9534H17.6445V38.2534H17.9445ZM23.132 38.2534H23.432V37.9534H23.132V38.2534ZM17.4445 43.562V43.862H17.7445V43.562H17.4445ZM12.257 43.562H11.957V43.862H12.257V43.562ZM12.257 38.2534V37.9534H11.957V38.2534H12.257ZM17.4445 38.2534H17.7445V37.9534H17.4445V38.2534ZM11.757 43.562V43.862H12.057V43.562H11.757ZM6.5695 43.562H6.2695V43.862H6.5695V43.562ZM6.5695 38.2534V37.9534H6.2695V38.2534H6.5695ZM11.757 38.2534H12.057V37.9534H11.757V38.2534ZM5.8039 52.0503L6.08948 52.1421L6.08963 52.1417L5.8039 52.0503ZM6.02265 51.3667V51.0667H5.80366L5.73692 51.2752L6.02265 51.3667ZM11.4719 51.3667L11.7681 51.4142L11.8238 51.0667H11.4719V51.3667ZM11.2179 52.9487V53.2487H11.4736L11.5142 52.9962L11.2179 52.9487ZM5.51484 52.9487L5.22926 52.8568L5.10317 53.2487H5.51484V52.9487ZM11.9797 51.3667V51.0667H11.724L11.6835 51.3191L11.9797 51.3667ZM17.4445 51.3667H17.7445V51.0667H17.4445V51.3667ZM17.4445 52.9487V53.2487H17.7445V52.9487H17.4445ZM11.7257 52.9487L11.4295 52.9011L11.3737 53.2487H11.7257V52.9487ZM17.9445 49.8706V49.5706H17.6445L17.6445 49.8706L17.9445 49.8706ZM23.1672 49.8706L23.4634 49.8229L23.4228 49.5706H23.1672V49.8706ZM23.3274 50.8667V51.1667H23.6794L23.6236 50.819L23.3274 50.8667ZM17.9446 50.8667L17.6446 50.8667L17.6446 51.1667H17.9446V50.8667ZM24.1711 52.9487L23.8749 52.9962L23.9154 53.2487L24.1711 53.2487L24.1711 52.9487ZM23.9172 51.3667V51.0667H23.5652L23.621 51.4142L23.9172 51.3667ZM29.3703 51.3667L29.656 51.2752L29.5893 51.0667H29.3703V51.3667ZM29.589 52.0503L29.3033 52.1417L29.3035 52.1421L29.589 52.0503ZM29.8781 52.9487L29.8781 53.2487L30.2898 53.2487L30.1637 52.8568L29.8781 52.9487ZM30.4016 52.9487L30.1159 53.0401L30.1826 53.2487L30.4016 53.2487L30.4016 52.9487ZM30.1828 52.2651L30.4686 52.1736L30.4684 52.1732L30.1828 52.2651ZM29.8938 51.3666V51.0666H29.4821L29.6082 51.4585L29.8938 51.3666ZM35.3196 51.3666L35.5899 51.2365L35.5081 51.0666H35.3196V51.3666ZM36.0813 52.9486L36.0813 53.2486L36.5587 53.2486L36.3516 52.8185L36.0813 52.9486ZM35.6321 50.8667L35.3619 50.997L35.4437 51.1667H35.6321V50.8667ZM35.1516 49.8706V49.5706H34.6738L34.8814 50.0009L35.1516 49.8706ZM40.3039 49.8706L40.5562 49.7083L40.4677 49.5706H40.3039V49.8706ZM40.9445 50.8667V51.1667H41.4942L41.1969 50.7044L40.9445 50.8667ZM41.5423 50.8667L41.29 51.0289L41.3785 51.1667H41.5423V50.8667ZM40.9017 49.8706V49.5706H40.352L40.6494 50.0329L40.9017 49.8706ZM46.0111 49.8706L46.2449 49.6826L46.1548 49.5706H46.0111V49.8706ZM46.8119 50.8667V51.1667H47.438L47.0457 50.6787L46.8119 50.8667ZM47.5814 44.7026H47.2814V44.8424L47.3884 44.9323L47.5814 44.7026ZM47.5814 38.8198L47.6871 38.539L47.2814 38.3862V38.8198H47.5814ZM48.7533 39.2612H49.0533V39.0536L48.859 38.9804L48.7533 39.2612ZM48.7533 45.687L48.5603 45.9167L49.0533 46.3308V45.687H48.7533ZM47.5814 38.2846H47.2814V38.4921L47.4756 38.5653L47.5814 38.2846ZM47.5814 32.4448V32.1448H47.2814V32.4448H47.5814ZM48.7533 32.4448H49.0533V32.1448H48.7533V32.4448ZM48.7533 38.726L48.6475 39.0067L49.0533 39.1595V38.726H48.7533ZM47.5814 31.9448H47.2814V32.2448L47.5814 32.2448L47.5814 31.9448ZM47.5814 26.2104L47.4943 25.9233L47.2814 25.9879V26.2104H47.5814ZM48.7533 25.8549H49.0533V25.4504L48.6662 25.5678L48.7533 25.8549ZM48.7533 31.9447L48.7533 32.2447L49.0533 32.2447V31.9447H48.7533ZM45.8822 37.7534V38.0534H46.1822V37.7534H45.8822ZM40.6947 37.7534H40.3947V38.0534H40.6947V37.7534ZM40.6947 32.4448V32.1448H40.3947V32.4448H40.6947ZM45.8822 32.4448H46.1822V32.1448H45.8822V32.4448ZM40.1947 37.7534V38.0534H40.4947V37.7534H40.1947ZM35.0072 37.7534H34.7072V38.0534H35.0072V37.7534ZM35.0072 32.4448V32.1448H34.7072V32.4448H35.0072ZM40.1947 32.4448H40.4947V32.1448H40.1947V32.4448ZM34.5072 37.7534V38.0534H34.8072V37.7534H34.5072ZM29.3197 37.7534H29.0197V38.0534H29.3197V37.7534ZM29.3197 32.4448V32.1448H29.0197V32.4448H29.3197ZM34.5072 32.4448H34.8072V32.1448H34.5072V32.4448ZM28.8197 37.7534V38.0534H29.1197V37.7534H28.8197ZM23.6322 37.7534H23.3322V38.0534H23.6322V37.7534ZM23.6322 32.4448V32.1448H23.3322V32.4448H23.6322ZM28.8197 32.4448H29.1197V32.1448H28.8197V32.4448ZM23.1322 37.7534V38.0534H23.4322V37.7534H23.1322ZM17.9447 37.7534H17.6447V38.0534H17.9447V37.7534ZM17.9447 32.4448V32.1448H17.6447V32.4448H17.9447ZM23.1322 32.4448H23.4322V32.1448H23.1322V32.4448ZM17.4447 37.7534V38.0534H17.7447V37.7534H17.4447ZM12.2572 37.7534H11.9572V38.0534H12.2572V37.7534ZM12.2572 32.4448V32.1448H11.9572V32.4448H12.2572ZM17.4447 32.4448H17.7447V32.1448H17.4447V32.4448ZM11.7572 37.7534V38.0534H12.0572V37.7534H11.7572ZM6.5697 37.7534H6.2697V38.0534H6.5697V37.7534ZM6.5697 32.4448V32.1448H6.2697V32.4448H6.5697ZM11.7572 32.4448H12.0572V32.1448H11.7572V32.4448ZM4.9642 54.6714L4.67869 54.5792L4.67825 54.5806L4.9642 54.6714ZM5.35873 53.4487V53.1487H5.1403L5.07323 53.3565L5.35873 53.4487ZM11.1439 53.4487L11.4402 53.4958L11.4954 53.1487H11.1439V53.4487ZM10.6635 56.4682V56.7682H10.9195L10.9597 56.5153L10.6635 56.4682ZM4.39396 56.4682L4.10801 56.3774L3.984 56.7682H4.39396V56.4682ZM11.6478 53.4487V53.1487H11.3918L11.3515 53.4015L11.6478 53.4487ZM17.4486 53.4487H17.7486V53.1487H17.4486V53.4487ZM17.4486 56.4682V56.7682H17.7486V56.4682H17.4486ZM11.1674 56.4682L10.8711 56.421L10.8159 56.7682H11.1674V56.4682ZM17.9447 51.3667V51.0667H17.6447L17.6447 51.3666L17.9447 51.3667ZM23.4095 51.3667L23.7057 51.3191L23.6652 51.0667H23.4095V51.3667ZM23.6634 52.9487V53.2487H24.0154L23.9596 52.9011L23.6634 52.9487ZM17.9446 52.9487L17.6446 52.9486L17.6446 53.2487H17.9446V52.9487ZM24.7338 56.4683L24.4376 56.5158L24.4781 56.7683L24.7338 56.7683L24.7338 56.4683ZM24.2494 53.4488V53.1488H23.8975L23.9532 53.4963L24.2494 53.4488ZM30.0346 53.4488L30.3201 53.3566L30.2531 53.1488H30.0346V53.4488ZM30.4292 54.6715L30.7149 54.5801L30.7147 54.5793L30.4292 54.6715ZM31.0034 56.4684L31.0034 56.7684L31.4142 56.7684L31.2891 56.377L31.0034 56.4684ZM31.5307 56.4683L31.2452 56.5604L31.3123 56.7683L31.5307 56.7683L31.5307 56.4683ZM31.1362 55.2456L30.8504 55.3369L30.8507 55.3377L31.1362 55.2456ZM30.562 53.4487V53.1487H30.1511L30.2762 53.54L30.562 53.4487ZM36.3236 53.4487L36.594 53.3186L36.5122 53.1487H36.3236V53.4487ZM37.7767 56.4682L37.7767 56.7682L38.254 56.7682L38.0471 56.3381L37.7767 56.4682ZM36.6362 52.9488L36.3659 53.0789L36.4477 53.2488L36.6362 53.2488L36.6362 52.9488ZM35.8745 51.3668V51.0668H35.3971L35.6042 51.4969L35.8745 51.3668ZM41.269 51.3668L41.5214 51.2046L41.4328 51.0668H41.269V51.3668ZM41.9565 52.4371L42.209 52.2751L42.2089 52.2749L41.9565 52.4371ZM42.2846 52.9488L42.2846 53.2488L42.8333 53.2488L42.5371 52.7869L42.2846 52.9488ZM42.8784 52.9488L42.626 53.1109L42.7145 53.2488L42.8784 53.2488L42.8784 52.9488ZM42.1909 51.8785L41.9384 52.0404L41.9385 52.0406L42.1909 51.8785ZM41.8628 51.3667V51.0667H41.314L41.6102 51.5287L41.8628 51.3667ZM47.2144 51.3667L47.4483 51.179L47.3583 51.0667H47.2144V51.3667ZM48.4839 52.9487L48.4839 53.2487L49.1093 53.2487L48.7179 52.761L48.4839 52.9487ZM49.2534 46.109H48.9534V46.2486L49.0602 46.3385L49.2534 46.109ZM49.2534 39.4528L49.3597 39.1722L48.9534 39.0183V39.4528H49.2534ZM51.5737 40.3317H51.8737V40.1245L51.68 40.0511L51.5737 40.3317ZM51.5737 48.0622L51.3805 48.2917L51.8737 48.7069V48.0622H51.5737ZM49.2534 38.9176H48.9534V39.1247L49.1471 39.1981L49.2534 38.9176ZM49.2534 32.4449V32.1449H48.9534V32.4449H49.2534ZM51.5737 32.4449H51.8737V32.1449H51.5737V32.4449ZM51.5737 39.7965L51.4674 40.077L51.8737 40.2309V39.7965H51.5737ZM52.0737 32.4449V32.1449H51.7737V32.4449H52.0737ZM55.6792 32.4449H55.9792V32.1449H55.6792V32.4449ZM55.6792 41.3472L55.5731 41.6278L55.9792 41.7813V41.3472H55.6792ZM52.0737 39.9839H51.7737V40.1912L51.9676 40.2645L52.0737 39.9839ZM52.0737 31.9449H51.7737V32.2449L52.0737 32.2449L52.0737 31.9449ZM52.0737 24.8551L51.9869 24.5679L51.7737 24.6323V24.8551H52.0737ZM55.6792 23.7653H55.9792V23.3612L55.5924 23.4781L55.6792 23.7653ZM55.6792 31.945L55.6792 32.245L55.9792 32.245V31.945H55.6792ZM51.5737 31.9449V32.2449H51.8737V31.9449H51.5737ZM49.2534 31.9449H48.9534V32.2449H49.2534V31.9449ZM49.2534 25.7066L49.1668 25.4193L48.9534 25.4836V25.7066H49.2534ZM51.5737 25.0073H51.8737V24.6036L51.4871 24.7201L51.5737 25.0073ZM49.2534 25.1871H48.9534V25.5914L49.3404 25.4742L49.2534 25.1871ZM49.2534 18.8004L49.0867 18.5509L48.9534 18.64V18.8004H49.2534ZM51.5737 17.2496H51.8737V16.6882L51.407 17.0001L51.5737 17.2496ZM51.5737 24.484L51.6607 24.7711L51.8737 24.7065V24.484H51.5737ZM48.7534 25.3355L48.8405 25.6226L49.0534 25.558V25.3355H48.7534ZM47.5815 25.691H47.2815V26.0955L47.6686 25.9781L47.5815 25.691ZM47.5815 19.9137L47.4151 19.6641L47.2815 19.7531V19.9137H47.5815ZM48.7534 19.1324H49.0534V18.5719L48.587 18.8828L48.7534 19.1324ZM45.8823 31.9449V32.2449H46.1823V31.9449H45.8823ZM40.6948 31.9449H40.3948V32.2449H40.6948V31.9449ZM40.6948 26.6363V26.3363H40.3948V26.6363H40.6948ZM45.8823 26.6363H46.1823V26.3363H45.8823V26.6363ZM40.1948 31.9449V32.2449H40.4948V31.9449H40.1948ZM35.0073 31.9449H34.7073V32.2449H35.0073V31.9449ZM35.0073 26.6363V26.3363H34.7073V26.6363H35.0073ZM40.1948 26.6363H40.4948V26.3363H40.1948V26.6363ZM34.5073 31.9449V32.2449H34.8073V31.9449H34.5073ZM29.3198 31.9449H29.0198V32.2449H29.3198V31.9449ZM29.3198 26.6363V26.3363H29.0198V26.6363H29.3198ZM34.5073 26.6363H34.8073V26.3363H34.5073V26.6363ZM28.8198 31.9449V32.2449H29.1198V31.9449H28.8198ZM23.6323 31.9449H23.3323V32.2449H23.6323V31.9449ZM23.6323 26.6363V26.3363H23.3323V26.6363H23.6323ZM28.8198 26.6363H29.1198V26.3363H28.8198V26.6363ZM23.1323 31.9449V32.2449H23.4323V31.9449H23.1323ZM17.9448 31.9449H17.6448V32.2449H17.9448V31.9449ZM17.9448 26.6363V26.3363H17.6448V26.6363H17.9448ZM23.1323 26.6363H23.4323V26.3363H23.1323V26.6363ZM17.4448 31.9449V32.2449H17.7448V31.9449H17.4448ZM12.2573 31.9449H11.9573V32.2449H12.2573V31.9449ZM12.2573 26.6363V26.3363H11.9573V26.6363H12.2573ZM17.4448 26.6363H17.7448V26.3363H17.4448V26.6363ZM11.7573 31.9449V32.2449H12.0573V31.9449H11.7573ZM6.5698 31.9449H6.2698V32.2449H6.5698V31.9449ZM6.5698 26.6363V26.3363H6.2698V26.6363H6.5698ZM11.7573 26.6363H12.0573V26.3363H11.7573V26.6363ZM3.558 59.0465L3.8436 59.1383L3.84376 59.1378L3.558 59.0465ZM4.22206 56.9684V56.6684H4.00298L3.9363 56.8771L4.22206 56.9684ZM10.5737 56.9684L10.8699 57.016L10.9257 56.6684H10.5737V56.9684ZM9.83147 61.5856V61.8856H10.0871L10.1277 61.6332L9.83147 61.5856ZM2.74167 61.5856L2.45607 61.4938L2.33009 61.8856H2.74167V61.5856ZM11.0814 56.9684V56.6684H10.8258L10.7852 56.9208L11.0814 56.9684ZM17.4447 56.9684H17.7447V56.6684H17.4447V56.9684ZM17.4447 61.5856V61.8856H17.7447V61.5856H17.4447ZM10.3392 61.5856L10.043 61.538L9.98712 61.8856H10.3392V61.5856ZM17.9447 53.4489V53.1489H17.6447L17.6447 53.4489L17.9447 53.4489ZM23.7416 53.4489L24.0378 53.4014L23.9973 53.1489H23.7416V53.4489ZM24.226 56.4684V56.7684H24.5779L24.5222 56.4209L24.226 56.4684ZM17.9448 56.4684L17.6448 56.4684L17.6448 56.7684H17.9448V56.4684ZM25.5541 61.5856L25.2579 61.633L25.2983 61.8856H25.5541V61.5856ZM24.8158 56.9684V56.6684H24.464L24.5196 57.0158L24.8158 56.9684ZM31.1674 56.9684L31.4532 56.8771L31.3865 56.6684H31.1674V56.9684ZM31.8315 59.0465L31.5457 59.1378L31.5458 59.1379L31.8315 59.0465ZM32.644 61.5856V61.8856H33.055L32.9297 61.4942L32.644 61.5856ZM33.1713 61.5856L32.8855 61.6769L32.9522 61.8856H33.1713V61.5856ZM32.5072 59.5075L32.793 59.4162L32.793 59.4161L32.5072 59.5075ZM31.6947 56.9684V56.6684H31.2838L31.409 57.0598L31.6947 56.9684ZM38.0189 56.9684L38.2892 56.8383L38.2075 56.6684H38.0189V56.9684ZM40.2416 61.5856V61.8856H40.719L40.5119 61.4555L40.2416 61.5856ZM38.3315 56.4684L38.0612 56.5985L38.1429 56.7684H38.3315V56.4684ZM36.8784 53.4489V53.1489H36.4011L36.6081 53.579L36.8784 53.4489ZM42.605 53.4489L42.8576 53.2871L42.7691 53.1489H42.605V53.4489ZM44.5386 56.4684V56.7684H45.0869L44.7912 56.3066L44.5386 56.4684ZM45.1323 56.4684L44.8797 56.6302L44.9682 56.7685L45.1325 56.7684L45.1323 56.4684ZM43.1987 53.4489V53.1489H42.6503L42.9461 53.6107L43.1987 53.4489ZM48.8315 53.4489L49.0436 53.2368L48.9558 53.1489H48.8315V53.4489ZM48.9096 53.4802L49.1436 53.2924L49.0967 53.2339L49.0278 53.2044L48.9096 53.4802ZM51.3041 56.4646L51.3043 56.7646L51.9291 56.7642L51.5381 56.2768L51.3041 56.4646ZM52.0737 48.484H51.7737V48.6237L51.8806 48.7136L52.0737 48.484ZM52.0737 40.5231L52.1798 40.2425L51.7737 40.0889V40.5231H52.0737ZM55.6792 41.8864H55.9792V41.6791L55.7853 41.6058L55.6792 41.8864ZM55.6792 51.5153L55.4861 51.7449L55.9792 52.1595V51.5153H55.6792ZM56.1753 42.0699L56.2815 41.7893L55.8753 41.6355V42.0699H56.1753ZM61.23 43.984H61.53V43.7768L61.3362 43.7034L61.23 43.984ZM61.23 56.179L61.0369 56.4086L61.53 56.8232V56.179H61.23ZM56.1753 51.929H55.8753V52.0687L55.9822 52.1586L56.1753 51.929ZM56.1753 41.5387H55.8753V41.746L56.0692 41.8193L56.1753 41.5387ZM56.1753 32.4449V32.1449H55.8753V32.4449H56.1753ZM61.23 32.4449H61.53V32.1449H61.23V32.4449ZM61.23 43.4489L61.1239 43.7295L61.53 43.8829V43.4489H61.23ZM56.1753 31.9449H55.8753V32.2448L56.1753 32.2449L56.1753 31.9449ZM56.1753 23.6168L56.0885 23.3296L55.8753 23.394V23.6168H56.1753ZM61.23 22.0895H61.53V21.6854L61.1432 21.8023L61.23 22.0895ZM61.23 31.945L61.23 32.245L61.53 32.245V31.945H61.23ZM61.2339 21.5659L61.3207 21.853L61.534 21.7886L61.5339 21.5657L61.2339 21.5659ZM56.1792 23.0932L55.8792 23.0933L55.8794 23.4971L56.266 23.3803L56.1792 23.0932ZM56.1753 14.1791L56.0087 13.9296L55.8752 14.0187L55.8753 14.1792L56.1753 14.1791ZM61.23 10.8041L61.53 10.8039L61.5298 10.2432L61.0634 10.5546L61.23 10.8041ZM55.6753 23.2456L55.7621 23.5327L55.9753 23.4683V23.2456H55.6753ZM52.0698 24.3354H51.7698V24.7394L52.1566 24.6225L52.0698 24.3354ZM52.0698 16.9174L51.9033 16.6678L51.7698 16.7569V16.9174H52.0698ZM55.6753 14.5112H55.9753V13.9503L55.5088 14.2616L55.6753 14.5112ZM52.0737 16.3159H51.7737V16.8767L52.2402 16.5654L52.0737 16.3159ZM52.0737 9.49555L51.8675 9.2776L51.7737 9.36637V9.49555H52.0737ZM55.6792 6.08535H55.9792V5.38867L55.473 5.8674L55.6792 6.08535ZM55.6792 13.9096L55.8457 14.1591L55.9792 14.07V13.9096H55.6792ZM51.5737 16.6479L51.7404 16.8973L51.8737 16.8082V16.6479H51.5737ZM49.2534 18.1987H48.9534V18.76L49.4201 18.4481L49.2534 18.1987ZM49.2534 12.1635L49.0472 11.9456L48.9534 12.0343V12.1635H49.2534ZM51.5737 9.96818H51.8737V9.27135L51.3675 9.75026L51.5737 9.96818ZM48.7534 18.5307L48.9198 18.7803L49.0534 18.6912V18.5307H48.7534ZM47.5815 19.3119H47.2815V19.8725L47.7479 19.5616L47.5815 19.3119ZM47.5815 13.7455L47.3752 13.5277L47.2815 13.6164V13.7455H47.5815ZM48.7534 12.6361H49.0534V11.939L48.5472 12.4183L48.7534 12.6361ZM47.0815 19.644L47.2485 19.8932L47.3815 19.804V19.644H47.0815ZM46.3823 20.1127H46.0823V20.675L46.5493 20.3619L46.3823 20.1127ZM46.3823 14.8783L46.1757 14.6608L46.0823 14.7495V14.8783H46.3823ZM47.0815 14.2143H47.3815V13.5156L46.8749 13.9967L47.0815 14.2143ZM45.8823 26.1401V26.4401H46.1823V26.1401H45.8823ZM40.6948 26.1401H40.3948V26.4401H40.6948V26.1401ZM40.6948 20.8315V20.5315H40.3948V20.8315H40.6948ZM45.8823 20.8315H46.1823V20.5315H45.8823V20.8315ZM40.1948 26.1401V26.4401H40.4948V26.1401H40.1948ZM35.0073 26.1401H34.7073V26.4401H35.0073V26.1401ZM35.0073 20.8315V20.5315H34.7073V20.8315H35.0073ZM40.1948 20.8315H40.4948V20.5315H40.1948V20.8315ZM34.5073 26.1401V26.4401H34.8073V26.1401H34.5073ZM29.3198 26.1401H29.0198V26.4401H29.3198V26.1401ZM29.3198 20.8315V20.5315H29.0198V20.8315H29.3198ZM34.5073 20.8315H34.8073V20.5315H34.5073V20.8315ZM28.8198 26.1401V26.4401H29.1198V26.1401H28.8198ZM23.6323 26.1401H23.3323V26.4401H23.6323V26.1401ZM23.6323 20.8315V20.5315H23.3323V20.8315H23.6323ZM28.8198 20.8315H29.1198V20.5315H28.8198V20.8315ZM23.1323 26.1401V26.4401H23.4323V26.1401H23.1323ZM17.9448 26.1401H17.6448V26.4401H17.9448V26.1401ZM17.9448 20.8315V20.5315H17.6448V20.8315H17.9448ZM23.1323 20.8315H23.4323V20.5315H23.1323V20.8315ZM17.4448 26.1401V26.4401H17.7448V26.1401H17.4448ZM12.2573 26.1401H11.9573V26.4401H12.2573V26.1401ZM12.2573 20.8315V20.5315H11.9573V20.8315H12.2573ZM17.4448 20.8315H17.7448V20.5315H17.4448V20.8315ZM11.7573 26.1401V26.4401H12.0573V26.1401H11.7573ZM6.5698 26.1401H6.2698V26.4401H6.5698V26.1401ZM6.5698 20.8315V20.5315H6.2698V20.8315H6.5698ZM11.7573 20.8315H12.0573V20.5315H11.7573V20.8315ZM1.7067 64.8275L1.99235 64.9192L1.99238 64.919L1.7067 64.8275ZM2.58561 62.0853V61.7853H2.36673L2.29992 61.9937L2.58561 62.0853ZM9.75751 62.0853L10.0537 62.1328L10.1095 61.7853H9.75751V62.0853ZM8.72631 68.515V68.815H8.98203L9.02253 68.5625L8.72631 68.515ZM0.523209 68.515L0.23756 68.4233L0.111852 68.815H0.523209V68.515ZM17.9447 56.9681V56.6681H17.645L17.6447 56.9678L17.9447 56.9681ZM24.3041 56.9681L24.6003 56.9207L24.5599 56.6681H24.3041V56.9681ZM25.0424 61.5853V61.8853H25.3942L25.3386 61.5379L25.0424 61.5853ZM17.9408 61.5853L17.6408 61.585L17.6405 61.8853H17.9408V61.5853ZM25.6361 62.0853V61.7853H25.2839L25.3399 62.133L25.6361 62.0853ZM32.808 62.0853L33.0937 61.9937L33.0269 61.7853H32.808V62.0853ZM33.6869 64.8275L33.4012 64.9191L33.4013 64.9192L33.6869 64.8275ZM34.8705 68.515V68.815H35.2819L35.1562 68.4233L34.8705 68.515ZM26.6713 68.515L26.3751 68.5627L26.4157 68.815H26.6713V68.515ZM35.3939 68.5189L35.1082 68.6104L35.175 68.8189H35.3939V68.5189ZM34.515 65.7767L34.8007 65.6851L34.8006 65.685L34.515 65.7767ZM33.3314 62.0892V61.7892H32.92L33.0457 62.1809L33.3314 62.0892ZM40.4759 62.0892L40.7462 61.9591L40.6645 61.7892H40.4759V62.0892ZM43.5697 68.5189V68.8189H44.047L43.84 68.3888L43.5697 68.5189ZM40.7923 61.5853L40.522 61.7154L40.6038 61.8853H40.7923V61.5853ZM38.5696 56.9681V56.6681H38.0922L38.2993 57.0982L38.5696 56.9681ZM44.8587 56.9681L45.1111 56.806L45.0226 56.6681H44.8587V56.9681ZM47.8235 61.5853V61.8853H48.3727L48.0759 61.4232L47.8235 61.5853ZM48.4173 61.5853L48.1649 61.7474L48.2534 61.8853H48.4173V61.5853ZM45.4525 56.9681V56.6681H44.9033L45.2001 57.1302L45.4525 56.9681ZM51.7025 56.9681L51.9365 56.7804L51.8465 56.6681H51.7025V56.9681ZM55.4056 61.5853V61.8853H56.0308L55.6396 61.3976L55.4056 61.5853ZM56.1751 52.5853L56.3682 52.3557L55.8751 51.9411V52.5853H56.1751ZM61.2298 56.8353H61.5298V56.6956L61.4229 56.6057L61.2298 56.8353ZM61.2298 68.0543L60.9957 68.2419L61.5298 68.9085V68.0543H61.2298ZM56.1751 61.7457H55.8751V61.851L55.941 61.9333L56.1751 61.7457ZM61.2337 10.2023L61.4003 10.4518L61.5337 10.3627V10.2023H61.2337ZM56.179 13.5773H55.879V14.1383L56.3456 13.8268L56.179 13.5773ZM56.179 5.61248L55.9728 5.39454L55.879 5.4833V5.61248H56.179ZM61.2337 0.831282H61.5337V0.134568L61.0275 0.613335L61.2337 0.831282ZM45.8817 20.3313V20.6313H46.1817V20.3313H45.8817ZM40.6942 20.3313H40.3942V20.6313H40.6942V20.3313ZM40.6942 15.0227V14.7227H40.3942V15.0227H40.6942ZM45.8817 15.0227H46.1817V14.7227H45.8817V15.0227ZM40.1942 20.3313V20.6313H40.4942V20.3313H40.1942ZM35.0067 20.3313H34.7067V20.6313H35.0067V20.3313ZM35.0067 15.0227V14.7227H34.7067V15.0227H35.0067ZM40.1942 15.0227H40.4942V14.7227H40.1942V15.0227ZM34.5067 20.3313V20.6313H34.8067V20.3313H34.5067ZM29.3192 20.3313H29.0192V20.6313H29.3192V20.3313ZM29.3192 15.0227V14.7227H29.0192V15.0227H29.3192ZM34.5067 15.0227H34.8067V14.7227H34.5067V15.0227ZM28.8192 20.3313V20.6313H29.1192V20.3313H28.8192ZM23.6317 20.3313H23.3317V20.6313H23.6317V20.3313ZM23.6317 15.0227V14.7227H23.3317V15.0227H23.6317ZM28.8192 15.0227H29.1192V14.7227H28.8192V15.0227ZM23.1317 20.3313V20.6313H23.4317V20.3313H23.1317ZM17.9442 20.3313H17.6442V20.6313H17.9442V20.3313ZM17.9442 15.0227V14.7227H17.6442V15.0227H17.9442ZM23.1317 15.0227H23.4317V14.7227H23.1317V15.0227ZM17.4442 20.3313V20.6313H17.7442V20.3313H17.4442ZM12.2567 20.3313H11.9567V20.6313H12.2567V20.3313ZM12.2567 15.0227V14.7227H11.9567V15.0227H12.2567ZM17.4442 15.0227H17.7442V14.7227H17.4442V15.0227ZM11.7567 20.3313V20.6313H12.0567V20.3313H11.7567ZM6.5692 20.3313H6.2692V20.6313H6.5692V20.3313ZM6.5692 15.0227V14.7227H6.2692V15.0227H6.5692ZM11.7567 15.0227H12.0567V14.7227H11.7567V15.0227ZM17.944 62.0855V61.7855H17.644V62.0855H17.944ZM25.1276 62.0855L25.4238 62.038L25.3833 61.7855H25.1276V62.0855ZM26.1588 68.5152V68.8152H26.5107L26.455 68.4677L26.1588 68.5152ZM17.944 68.5152H17.644V68.8152H17.944V68.5152ZM44.124 68.5191L43.8537 68.6492L43.9354 68.8191H44.124V68.5191ZM41.0302 62.0894V61.7894H40.5529L40.7598 62.2195L41.0302 62.0894ZM48.1396 62.0894L48.3921 61.9274L48.3035 61.7894H48.1396V62.0894ZM52.2646 68.5191V68.8191H52.8135L52.5171 68.3571L52.2646 68.5191ZM52.8623 68.5191L52.6098 68.6811L53.1545 69.5302L53.1623 68.5214L52.8623 68.5191ZM48.7373 62.0894V61.7894H48.1884L48.4848 62.2514L48.7373 62.0894ZM55.7178 62.0894L55.9886 61.9604L55.9072 61.7894H55.7178V62.0894ZM55.9248 62.2378L56.1589 62.0502L56.0734 61.9435L55.9368 61.9381L55.9248 62.2378ZM60.96 68.519L60.9599 68.819L61.5852 68.8193L61.1941 68.3314L60.96 68.519ZM52.8623 68.5151L52.8625 68.2151L52.5646 68.215L52.5623 68.5128L52.8623 68.5151ZM17.445 68.5191V68.2191H9.2302V68.5191V68.8191H17.445V68.5191ZM9.2302 68.5191L9.52641 68.5666L10.5576 62.1369L10.2614 62.0894L9.96518 62.0419L8.93398 68.4716L9.2302 68.5191ZM10.2614 62.0894V62.3894H17.445V62.0894V61.7894H10.2614V62.0894ZM17.445 62.0894H17.145V68.5191H17.445H17.745V62.0894H17.445ZM55.676 61.1246L55.9101 60.937L52.2539 56.3745L52.0198 56.5621L51.7857 56.7497L55.4419 61.3122L55.676 61.1246ZM52.0198 56.5621L52.253 56.3733L52.1202 56.2092L51.887 56.398L51.6538 56.5868L51.7866 56.7508L52.0198 56.5621ZM51.887 56.398L51.9752 56.6847C52.1511 56.6306 52.3745 56.4673 52.3745 56.1753H52.0745H51.7745C51.7745 56.1649 51.7766 56.1527 51.7815 56.1406C51.7863 56.1289 51.7923 56.1207 51.7968 56.1156C51.8048 56.1068 51.8074 56.1086 51.7988 56.1113L51.887 56.398ZM52.0745 56.1753H52.3745V49.1362H52.0745H51.7745V56.1753H52.0745ZM52.0745 49.1362L51.8814 49.3659L55.4869 52.3971L55.68 52.1674L55.873 51.9378L52.2675 48.9066L52.0745 49.1362ZM55.68 52.1674H55.38V61.1244H55.68H55.98V52.1674H55.68ZM55.68 61.1244L55.6708 60.8246L55.6668 60.8247L55.676 61.1246L55.6852 61.4244L55.6892 61.4243L55.68 61.1244ZM46.383 20.7145L46.55 20.9637L47.2493 20.4949L47.0822 20.2457L46.9152 19.9965L46.2159 20.4653L46.383 20.7145ZM47.0822 20.2457H46.7822V25.8395H47.0822H47.3822V20.2457H47.0822ZM47.0822 25.8395L46.9956 25.5523L46.2963 25.7632L46.383 26.0505L46.4696 26.3377L47.1689 26.1267L47.0822 25.8395ZM46.383 26.0505H46.683V20.7145H46.383H46.083V26.0505H46.383ZM49.2541 53.1125H49.5541V46.7609H49.2541H48.9541V53.1125H49.2541ZM49.2541 46.7609L49.0611 46.9906L51.3814 48.9398L51.5744 48.7101L51.7674 48.4804L49.4471 46.5312L49.2541 46.7609ZM51.5744 48.7101H51.2744V56.007H51.5744H51.8744V48.7101H51.5744ZM51.5744 56.007L51.8085 55.8193L49.4882 52.9248L49.2541 53.1125L49.02 53.3001L51.3403 56.1946L51.5744 56.007ZM46.3831 26.5734L46.4697 26.8606L47.169 26.6496L47.0823 26.3624L46.9957 26.0752L46.2964 26.2861L46.3831 26.5734ZM47.0823 26.3624H46.7823V31.9444H47.0823H47.3823V26.3624H47.0823ZM47.0823 31.9444V31.6444H46.3831V31.9444V32.2444H47.0823V31.9444ZM46.3831 31.9444H46.6831V26.5734H46.3831H46.0831V31.9444H46.3831ZM48.7542 52.4874L48.9882 52.2996L47.8163 50.8387L47.5823 51.0265L47.3483 51.2142L48.5202 52.6751L48.7542 52.4874ZM47.5823 51.0265H47.8823V45.3546H47.5823H47.2823V51.0265H47.5823ZM47.5823 45.3546L47.3893 45.5843L48.5612 46.5687L48.7542 46.3389L48.9471 46.1092L47.7752 45.1248L47.5823 45.3546ZM48.7542 46.3389H48.4542V52.4874H48.7542H49.0542V46.3389H48.7542ZM47.0822 32.4448H46.7822V38.0971H47.0822H47.3822V32.4448H47.0822ZM47.0822 38.0971L47.1887 37.8166L46.4895 37.551L46.383 37.8314L46.2764 38.1119L46.9757 38.3775L47.0822 38.0971ZM46.383 37.8314H46.683V32.4447H46.383H46.083V37.8314H46.383ZM46.383 32.4447L46.383 32.7447L47.0822 32.7448L47.0822 32.4448L47.0822 32.1448L46.383 32.1447L46.383 32.4447ZM47.0822 50.4058L47.3166 50.2185L46.6173 49.3435L46.383 49.5308L46.1486 49.718L46.8478 50.593L47.0822 50.4058ZM46.383 49.5308H46.683V44.3472H46.383H46.083V49.5308H46.383ZM46.383 44.3472L46.1895 44.5765L46.8888 45.1663L47.0822 44.937L47.2756 44.7077L46.5764 44.1179L46.383 44.3472ZM47.0822 44.937H46.7822V50.4058H47.0822H47.3822V44.937H47.0822ZM17.4452 49.3706V49.0706H12.2577V49.3706V49.6706H17.4452V49.3706ZM12.2577 49.3706H12.5577V44.062H12.2577H11.9577V49.3706H12.2577ZM12.2577 44.062V44.362H17.4452V44.062V43.762H12.2577V44.062ZM17.4452 44.062H17.1452V49.3706H17.4452H17.7452V44.062H17.4452ZM11.7577 49.3706V49.0706H6.5702V49.3706V49.6706H11.7577V49.3706ZM6.5702 49.3706H6.8702V44.062H6.5702H6.2702V49.3706H6.5702ZM6.5702 44.062V44.362H11.7577V44.062V43.762H6.5702V44.062ZM11.7577 44.062H11.4577V49.3706H11.7577H12.0577V44.062H11.7577ZM6.3708 50.2885L6.65619 50.381L6.79291 49.9591L6.50752 49.8667L6.22213 49.7742L6.08541 50.1961L6.3708 50.2885ZM6.50752 49.8667V50.1667H11.7184V49.8667V49.5667H6.50752V49.8667ZM11.7184 49.8667L11.4224 49.8181L11.2583 50.8181L11.5544 50.8667L11.8504 50.9152L12.0145 49.9152L11.7184 49.8667ZM11.5544 50.8667V50.5667H6.18326V50.8667V51.1667H11.5544V50.8667ZM6.18326 50.8667L6.46862 50.9592L6.65616 50.3811L6.3708 50.2885L6.08544 50.196L5.8979 50.7741L6.18326 50.8667ZM12.2224 49.8706V50.1706H17.449V49.8706V49.5706H12.2224V49.8706ZM17.449 49.8706H17.149V50.8667H17.449H17.749V49.8706H17.449ZM17.449 50.8667V50.5667H12.0662V50.8667V51.1667H17.449V50.8667ZM12.0662 50.8667L12.3626 50.9131L12.5188 49.917L12.2224 49.8706L11.926 49.8241L11.7698 50.8202L12.0662 50.8667ZM17.9451 44.062V44.362H23.1326V44.062V43.762H17.9451V44.062ZM23.1326 44.062H22.8326V49.3706H23.1326H23.4326V44.062H23.1326ZM23.1326 49.3706V49.0706H17.9451V49.3706V49.6706H23.1326V49.3706ZM17.9451 49.3706H18.2451V44.062H17.9451H17.6451V49.3706H17.9451ZM34.5071 49.3706V49.0706H29.3196V49.3706V49.6706H34.5071V49.3706ZM29.3196 49.3706H29.6196V44.062H29.3196H29.0196V49.3706H29.3196ZM29.3196 44.062V44.362H34.5071V44.062V43.762H29.3196V44.062ZM34.5071 44.062H34.2071V49.3706H34.5071H34.8071V44.062H34.5071ZM28.8196 49.3706V49.0706H23.6321V49.3706V49.6706H28.8196V49.3706ZM23.6321 49.3706H23.9321V44.062H23.6321H23.3321V49.3706H23.6321ZM23.6321 44.062V44.362H28.8196V44.062V43.762H23.6321V44.062ZM28.8196 44.062H28.5196V49.3706H28.8196H29.1196V44.062H28.8196ZM23.8352 50.8667L24.1314 50.819L23.9712 49.8229L23.675 49.8706L23.3788 49.9182L23.539 50.9143L23.8352 50.8667ZM23.675 49.8706V50.1706H28.8859V49.8706V49.5706H23.675V49.8706ZM28.8859 49.8706L28.6013 49.9654L28.6287 50.0475L28.9133 49.9526L29.1979 49.8577L29.1705 49.7757L28.8859 49.8706ZM28.9133 49.9526L28.628 50.0453L28.9248 50.9593L29.2102 50.8667L29.4955 50.774L29.1986 49.8599L28.9133 49.9526ZM29.2102 50.8667L29.2102 50.5667L23.8352 50.5667L23.8352 50.8667L23.8352 51.1667L29.2102 51.1667L29.2102 50.8667ZM29.7336 50.8667L30.0182 50.7718L29.9909 50.6898L29.7063 50.7846L29.4216 50.8795L29.449 50.9615L29.7336 50.8667ZM29.7063 50.7846L29.9919 50.6931L29.699 49.779L29.4133 49.8706L29.1276 49.9621L29.4206 50.8762L29.7063 50.7846ZM29.4133 49.8706V50.1706H34.6008V49.8706V49.5706H29.4133V49.8706ZM34.6008 49.8706L34.3306 50.0009L34.811 50.997L35.0813 50.8667L35.3515 50.7363L34.871 49.7402L34.6008 49.8706ZM35.0813 50.8667V50.5667H29.7336V50.8667V51.1667H35.0813V50.8667ZM35.007 44.062V44.362H40.1945V44.062V43.762H35.007V44.062ZM40.1945 44.062H39.8945V49.3706H40.1945H40.4945V44.062H40.1945ZM40.1945 49.3706V49.0706H35.007V49.3706V49.6706H40.1945V49.3706ZM35.007 49.3706H35.307V44.062H35.007H34.707V49.3706H35.007ZM40.6945 44.062V44.362H45.882V44.062V43.762H40.6945V44.062ZM45.882 44.062H45.582V49.3706H45.882H46.182V44.062H45.882ZM45.882 49.3706V49.0706H40.6945V49.3706V49.6706H45.882V49.3706ZM40.6945 49.3706H40.9945V44.062H40.6945H40.3945V49.3706H40.6945ZM46.382 43.6948H46.682V38.3667H46.382H46.082V43.6948H46.382ZM46.382 38.3667L46.2755 38.6471L46.9747 38.9127L47.0812 38.6323L47.1878 38.3518L46.4885 38.0862L46.382 38.3667ZM47.0812 38.6323H46.7812V44.2846H47.0812H47.3812V38.6323H47.0812ZM47.0812 44.2846L47.2746 44.0553L46.5754 43.4655L46.382 43.6948L46.1886 43.9241L46.8878 44.5139L47.0812 44.2846ZM45.882 43.562V43.262H40.6945V43.562V43.862H45.882V43.562ZM40.6945 43.562H40.9945V38.2534H40.6945H40.3945V43.562H40.6945ZM40.6945 38.2534V38.5534H45.882V38.2534V37.9534H40.6945V38.2534ZM45.882 38.2534H45.582V43.562H45.882H46.182V38.2534H45.882ZM40.1945 43.562V43.262H35.007V43.562V43.862H40.1945V43.562ZM35.007 43.562H35.307V38.2534H35.007H34.707V43.562H35.007ZM35.007 38.2534V38.5534H40.1945V38.2534V37.9534H35.007V38.2534ZM40.1945 38.2534H39.8945V43.562H40.1945H40.4945V38.2534H40.1945ZM34.507 43.562V43.262H29.3195V43.562V43.862H34.507V43.562ZM29.3195 43.562H29.6195V38.2534H29.3195H29.0195V43.562H29.3195ZM29.3195 38.2534V38.5534H34.507V38.2534V37.9534H29.3195V38.2534ZM34.507 38.2534H34.207V43.562H34.507H34.807V38.2534H34.507ZM28.8195 43.562V43.262H23.632V43.562V43.862H28.8195V43.562ZM23.632 43.562H23.932V38.2534H23.632H23.332V43.562H23.632ZM23.632 38.2534V38.5534H28.8195V38.2534V37.9534H23.632V38.2534ZM28.8195 38.2534H28.5195V43.562H28.8195H29.1195V38.2534H28.8195ZM23.132 43.562V43.262H17.9445V43.562V43.862H23.132V43.562ZM17.9445 43.562H18.2445V38.2534H17.9445H17.6445V43.562H17.9445ZM17.9445 38.2534V38.5534H23.132V38.2534V37.9534H17.9445V38.2534ZM23.132 38.2534H22.832V43.562H23.132H23.432V38.2534H23.132ZM17.4445 43.562V43.262H12.257V43.562V43.862H17.4445V43.562ZM12.257 43.562H12.557V38.2534H12.257H11.957V43.562H12.257ZM12.257 38.2534V38.5534H17.4445V38.2534V37.9534H12.257V38.2534ZM17.4445 38.2534H17.1445V43.562H17.4445H17.7445V38.2534H17.4445ZM11.757 43.562V43.262H6.5695V43.562V43.862H11.757V43.562ZM6.5695 43.562H6.8695V38.2534H6.5695H6.2695V43.562H6.5695ZM6.5695 38.2534V38.5534H11.757V38.2534V37.9534H6.5695V38.2534ZM11.757 38.2534H11.457V43.562H11.757H12.057V38.2534H11.757ZM5.8039 52.0503L6.08963 52.1417L6.30838 51.4581L6.02265 51.3667L5.73692 51.2752L5.51817 51.9588L5.8039 52.0503ZM6.02265 51.3667V51.6667H11.4719V51.3667V51.0667H6.02265V51.3667ZM11.4719 51.3667L11.1756 51.3191L10.9217 52.9011L11.2179 52.9487L11.5142 52.9962L11.7681 51.4142L11.4719 51.3667ZM11.2179 52.9487V52.6487H5.51484V52.9487V53.2487H11.2179V52.9487ZM5.51484 52.9487L5.80042 53.0405L6.08948 52.1421L5.8039 52.0503L5.51832 51.9584L5.22926 52.8568L5.51484 52.9487ZM11.9797 51.3667V51.6667H17.4445V51.3667V51.0667H11.9797V51.3667ZM17.4445 51.3667H17.1445V52.9487H17.4445H17.7445V51.3667H17.4445ZM17.4445 52.9487V52.6487H11.7257V52.9487V53.2487H17.4445V52.9487ZM11.7257 52.9487L12.0219 52.9962L12.2759 51.4142L11.9797 51.3667L11.6835 51.3191L11.4295 52.9011L11.7257 52.9487ZM17.9445 49.8706V50.1706H23.1672V49.8706V49.5706H17.9445V49.8706ZM23.1672 49.8706L22.871 49.9182L23.0312 50.9143L23.3274 50.8667L23.6236 50.819L23.4634 49.8229L23.1672 49.8706ZM23.3274 50.8667V50.5667H17.9446V50.8667V51.1667H23.3274V50.8667ZM17.9446 50.8667L18.2446 50.8666L18.2445 49.8705L17.9445 49.8706L17.6445 49.8706L17.6446 50.8667L17.9446 50.8667ZM24.1711 52.9487L24.4673 52.9011L24.2134 51.3191L23.9172 51.3667L23.621 51.4142L23.8749 52.9962L24.1711 52.9487ZM23.9172 51.3667V51.6667H29.3703V51.3667V51.0667H23.9172V51.3667ZM29.3703 51.3667L29.0846 51.4581L29.3033 52.1417L29.589 52.0503L29.8748 51.9588L29.656 51.2752L29.3703 51.3667ZM29.589 52.0503L29.3035 52.1421L29.5925 53.0406L29.8781 52.9487L30.1637 52.8568L29.8746 51.9584L29.589 52.0503ZM29.8781 52.9487L29.8781 52.6487L24.1711 52.6487L24.1711 52.9487L24.1711 53.2487L29.8781 53.2487L29.8781 52.9487ZM30.4016 52.9487L30.6873 52.8572L30.4686 52.1736L30.1828 52.2651L29.8971 52.3565L30.1159 53.0401L30.4016 52.9487ZM30.1828 52.2651L30.4684 52.1732L30.1794 51.2748L29.8938 51.3666L29.6082 51.4585L29.8973 52.357L30.1828 52.2651ZM29.8938 51.3666V51.6666H35.3196V51.3666V51.0666H29.8938V51.3666ZM35.3196 51.3666L35.0493 51.4968L35.811 53.0788L36.0813 52.9486L36.3516 52.8185L35.5899 51.2365L35.3196 51.3666ZM36.0813 52.9486L36.0813 52.6486L30.4016 52.6487L30.4016 52.9487L30.4016 53.2487L36.0813 53.2486L36.0813 52.9486ZM35.6321 50.8667L35.9023 50.7363L35.4218 49.7402L35.1516 49.8706L34.8814 50.0009L35.3619 50.997L35.6321 50.8667ZM35.1516 49.8706V50.1706H40.3039V49.8706V49.5706H35.1516V49.8706ZM40.3039 49.8706L40.0516 50.0329L40.6922 51.0289L40.9445 50.8667L41.1969 50.7044L40.5562 49.7083L40.3039 49.8706ZM40.9445 50.8667V50.5667H35.6321V50.8667V51.1667H40.9445V50.8667ZM41.5423 50.8667L41.7946 50.7044L41.154 49.7083L40.9017 49.8706L40.6494 50.0329L41.29 51.0289L41.5423 50.8667ZM40.9017 49.8706V50.1706H46.0111V49.8706V49.5706H40.9017V49.8706ZM46.0111 49.8706L45.7773 50.0585L46.578 51.0546L46.8119 50.8667L47.0457 50.6787L46.2449 49.6826L46.0111 49.8706ZM46.8119 50.8667V50.5667H41.5423V50.8667V51.1667H46.8119V50.8667ZM47.5814 44.7026H47.8814V38.8198H47.5814H47.2814V44.7026H47.5814ZM47.5814 38.8198L47.4756 39.1005L48.6475 39.5419L48.7533 39.2612L48.859 38.9804L47.6871 38.539L47.5814 38.8198ZM48.7533 39.2612H48.4533V45.687H48.7533H49.0533V39.2612H48.7533ZM48.7533 45.687L48.9462 45.4573L47.7744 44.4729L47.5814 44.7026L47.3884 44.9323L48.5603 45.9167L48.7533 45.687ZM47.5814 38.2846H47.8814V32.4448H47.5814H47.2814V38.2846H47.5814ZM47.5814 32.4448V32.7448H48.7533V32.4448V32.1448H47.5814V32.4448ZM48.7533 32.4448H48.4533V38.726H48.7533H49.0533V32.4448H48.7533ZM48.7533 38.726L48.859 38.4452L47.6871 38.0038L47.5814 38.2846L47.4756 38.5653L48.6475 39.0067L48.7533 38.726ZM47.5814 31.9448H47.8814V26.2104H47.5814H47.2814V31.9448H47.5814ZM47.5814 26.2104L47.6685 26.4974L48.8404 26.142L48.7533 25.8549L48.6662 25.5678L47.4943 25.9233L47.5814 26.2104ZM48.7533 25.8549H48.4533V31.9447H48.7533H49.0533V25.8549H48.7533ZM48.7533 31.9447L48.7533 31.6447L47.5814 31.6448L47.5814 31.9448L47.5814 32.2448L48.7533 32.2447L48.7533 31.9447ZM45.8822 37.7534V37.4534H40.6947V37.7534V38.0534H45.8822V37.7534ZM40.6947 37.7534H40.9947V32.4448H40.6947H40.3947V37.7534H40.6947ZM40.6947 32.4448V32.7448H45.8822V32.4448V32.1448H40.6947V32.4448ZM45.8822 32.4448H45.5822V37.7534H45.8822H46.1822V32.4448H45.8822ZM40.1947 37.7534V37.4534H35.0072V37.7534V38.0534H40.1947V37.7534ZM35.0072 37.7534H35.3072V32.4448H35.0072H34.7072V37.7534H35.0072ZM35.0072 32.4448V32.7448H40.1947V32.4448V32.1448H35.0072V32.4448ZM40.1947 32.4448H39.8947V37.7534H40.1947H40.4947V32.4448H40.1947ZM34.5072 37.7534V37.4534H29.3197V37.7534V38.0534H34.5072V37.7534ZM29.3197 37.7534H29.6197V32.4448H29.3197H29.0197V37.7534H29.3197ZM29.3197 32.4448V32.7448H34.5072V32.4448V32.1448H29.3197V32.4448ZM34.5072 32.4448H34.2072V37.7534H34.5072H34.8072V32.4448H34.5072ZM28.8197 37.7534V37.4534H23.6322V37.7534V38.0534H28.8197V37.7534ZM23.6322 37.7534H23.9322V32.4448H23.6322H23.3322V37.7534H23.6322ZM23.6322 32.4448V32.7448H28.8197V32.4448V32.1448H23.6322V32.4448ZM28.8197 32.4448H28.5197V37.7534H28.8197H29.1197V32.4448H28.8197ZM23.1322 37.7534V37.4534H17.9447V37.7534V38.0534H23.1322V37.7534ZM17.9447 37.7534H18.2447V32.4448H17.9447H17.6447V37.7534H17.9447ZM17.9447 32.4448V32.7448H23.1322V32.4448V32.1448H17.9447V32.4448ZM23.1322 32.4448H22.8322V37.7534H23.1322H23.4322V32.4448H23.1322ZM17.4447 37.7534V37.4534H12.2572V37.7534V38.0534H17.4447V37.7534ZM12.2572 37.7534H12.5572V32.4448H12.2572H11.9572V37.7534H12.2572ZM12.2572 32.4448V32.7448H17.4447V32.4448V32.1448H12.2572V32.4448ZM17.4447 32.4448H17.1447V37.7534H17.4447H17.7447V32.4448H17.4447ZM11.7572 37.7534V37.4534H6.5697V37.7534V38.0534H11.7572V37.7534ZM6.5697 37.7534H6.8697V32.4448H6.5697H6.2697V37.7534H6.5697ZM6.5697 32.4448V32.7448H11.7572V32.4448V32.1448H6.5697V32.4448ZM11.7572 32.4448H11.4572V37.7534H11.7572H12.0572V32.4448H11.7572ZM4.9642 54.6714L5.2497 54.7635L5.64424 53.5408L5.35873 53.4487L5.07323 53.3565L4.67869 54.5792L4.9642 54.6714ZM5.35873 53.4487V53.7487H11.1439V53.4487V53.1487H5.35873V53.4487ZM11.1439 53.4487L10.8477 53.4015L10.3672 56.421L10.6635 56.4682L10.9597 56.5153L11.4402 53.4958L11.1439 53.4487ZM10.6635 56.4682V56.1682H4.39396V56.4682V56.7682H10.6635V56.4682ZM4.39396 56.4682L4.6799 56.5589L5.25014 54.7621L4.9642 54.6714L4.67825 54.5806L4.10801 56.3774L4.39396 56.4682ZM11.6478 53.4487V53.7487H17.4486V53.4487V53.1487H11.6478V53.4487ZM17.4486 53.4487H17.1486V56.4682H17.4486H17.7486V53.4487H17.4486ZM17.4486 56.4682V56.1682H11.1674V56.4682V56.7682H17.4486V56.4682ZM11.1674 56.4682L11.4637 56.5153L11.9441 53.4958L11.6478 53.4487L11.3515 53.4015L10.8711 56.421L11.1674 56.4682ZM17.9447 51.3667V51.6667H23.4095V51.3667V51.0667H17.9447V51.3667ZM23.4095 51.3667L23.1133 51.4142L23.3672 52.9962L23.6634 52.9487L23.9596 52.9011L23.7057 51.3191L23.4095 51.3667ZM23.6634 52.9487V52.6487H17.9446V52.9487V53.2487H23.6634V52.9487ZM17.9446 52.9487L18.2446 52.9487L18.2447 51.3667L17.9447 51.3667L17.6447 51.3666L17.6446 52.9486L17.9446 52.9487ZM24.7338 56.4683L25.03 56.4207L24.5456 53.4012L24.2494 53.4488L23.9532 53.4963L24.4376 56.5158L24.7338 56.4683ZM24.2494 53.4488V53.7488H30.0346V53.4488V53.1488H24.2494V53.4488ZM30.0346 53.4488L29.7491 53.5409L30.1437 54.7636L30.4292 54.6715L30.7147 54.5793L30.3201 53.3566L30.0346 53.4488ZM30.4292 54.6715L30.1434 54.7628L30.7176 56.5597L31.0034 56.4684L31.2891 56.377L30.7149 54.5801L30.4292 54.6715ZM31.0034 56.4684L31.0034 56.1684L24.7338 56.1683L24.7338 56.4683L24.7338 56.7683L31.0034 56.7684L31.0034 56.4684ZM31.5307 56.4683L31.8162 56.3761L31.4217 55.1534L31.1362 55.2456L30.8507 55.3377L31.2452 56.5604L31.5307 56.4683ZM31.1362 55.2456L31.4219 55.1542L30.8477 53.3573L30.562 53.4487L30.2762 53.54L30.8504 55.3369L31.1362 55.2456ZM30.562 53.4487V53.7487H36.3236V53.4487V53.1487H30.562V53.4487ZM36.3236 53.4487L36.0533 53.5788L37.5064 56.5983L37.7767 56.4682L38.0471 56.3381L36.594 53.3186L36.3236 53.4487ZM37.7767 56.4682L37.7767 56.1682L31.5307 56.1683L31.5307 56.4683L31.5307 56.7683L37.7767 56.7682L37.7767 56.4682ZM36.6362 52.9488L36.9065 52.8186L36.1448 51.2366L35.8745 51.3668L35.6042 51.4969L36.3659 53.0789L36.6362 52.9488ZM35.8745 51.3668V51.6668H41.269V51.3668V51.0668H35.8745V51.3668ZM41.269 51.3668L41.0166 51.5289L41.7041 52.5992L41.9565 52.4371L42.2089 52.2749L41.5214 51.2046L41.269 51.3668ZM41.9565 52.4371L41.7039 52.599L42.032 53.1107L42.2846 52.9488L42.5371 52.7869L42.209 52.2751L41.9565 52.4371ZM42.2846 52.9488L42.2846 52.6488L36.6362 52.6488L36.6362 52.9488L36.6362 53.2488L42.2846 53.2488L42.2846 52.9488ZM42.8784 52.9488L43.1308 52.7866L42.4433 51.7163L42.1909 51.8785L41.9385 52.0406L42.626 53.1109L42.8784 52.9488ZM42.1909 51.8785L42.4434 51.7165L42.1153 51.2048L41.8628 51.3667L41.6102 51.5287L41.9384 52.0404L42.1909 51.8785ZM41.8628 51.3667V51.6667H47.2144V51.3667V51.0667H41.8628V51.3667ZM47.2144 51.3667L46.9804 51.5545L48.2499 53.1365L48.4839 52.9487L48.7179 52.761L47.4483 51.179L47.2144 51.3667ZM48.4839 52.9487L48.4839 52.6487L42.8784 52.6488L42.8784 52.9488L42.8784 53.2488L48.4839 53.2487L48.4839 52.9487ZM49.2534 46.109H49.5534V39.4528H49.2534H48.9534V46.109H49.2534ZM49.2534 39.4528L49.1471 39.7333L51.4674 40.6122L51.5737 40.3317L51.68 40.0511L49.3597 39.1722L49.2534 39.4528ZM51.5737 40.3317H51.2737V48.0622H51.5737H51.8737V40.3317H51.5737ZM51.5737 48.0622L51.7669 47.8327L49.4466 45.8795L49.2534 46.109L49.0602 46.3385L51.3805 48.2917L51.5737 48.0622ZM49.2534 38.9176H49.5534V32.4449H49.2534H48.9534V38.9176H49.2534ZM49.2534 32.4449V32.7449H51.5737V32.4449V32.1449H49.2534V32.4449ZM51.5737 32.4449H51.2737V39.7965H51.5737H51.8737V32.4449H51.5737ZM51.5737 39.7965L51.68 39.5159L49.3597 38.637L49.2534 38.9176L49.1471 39.1981L51.4674 40.077L51.5737 39.7965ZM52.0737 32.4449V32.7449H55.6792V32.4449V32.1449H52.0737V32.4449ZM55.6792 32.4449H55.3792V41.3472H55.6792H55.9792V32.4449H55.6792ZM55.6792 41.3472L55.7853 41.0666L52.1798 39.7033L52.0737 39.9839L51.9676 40.2645L55.5731 41.6278L55.6792 41.3472ZM52.0737 39.9839H52.3737V32.4449H52.0737H51.7737V39.9839H52.0737ZM52.0737 31.9449H52.3737V24.8551H52.0737H51.7737V31.9449H52.0737ZM52.0737 24.8551L52.1605 25.1422L55.766 24.0524L55.6792 23.7653L55.5924 23.4781L51.9869 24.5679L52.0737 24.8551ZM55.6792 23.7653H55.3792V31.945H55.6792H55.9792V23.7653H55.6792ZM55.6792 31.945L55.6792 31.645L52.0737 31.6449L52.0737 31.9449L52.0737 32.2449L55.6792 32.245L55.6792 31.945ZM51.5737 31.9449V31.6449H49.2534V31.9449V32.2449H51.5737V31.9449ZM49.2534 31.9449H49.5534V25.7066H49.2534H48.9534V31.9449H49.2534ZM49.2534 25.7066L49.34 25.9938L51.6603 25.2946L51.5737 25.0073L51.4871 24.7201L49.1668 25.4193L49.2534 25.7066ZM51.5737 25.0073H51.2737V31.9449H51.5737H51.8737V25.0073H51.5737ZM49.2534 25.1871H49.5534V18.8004H49.2534H48.9534V25.1871H49.2534ZM49.2534 18.8004L49.4201 19.0498L51.7404 17.499L51.5737 17.2496L51.407 17.0001L49.0867 18.5509L49.2534 18.8004ZM51.5737 17.2496H51.2737V24.484H51.5737H51.8737V17.2496H51.5737ZM51.5737 24.484L51.4867 24.1969L49.1664 24.9L49.2534 25.1871L49.3404 25.4742L51.6607 24.7711L51.5737 24.484ZM48.7534 25.3355L48.6663 25.0484L47.4944 25.4039L47.5815 25.691L47.6686 25.9781L48.8405 25.6226L48.7534 25.3355ZM47.5815 25.691H47.8815V19.9137H47.5815H47.2815V25.691H47.5815ZM47.5815 19.9137L47.7479 20.1633L48.9198 19.382L48.7534 19.1324L48.587 18.8828L47.4151 19.6641L47.5815 19.9137ZM48.7534 19.1324H48.4534V25.3355H48.7534H49.0534V19.1324H48.7534ZM45.8823 31.9449V31.6449H40.6948V31.9449V32.2449H45.8823V31.9449ZM40.6948 31.9449H40.9948V26.6363H40.6948H40.3948V31.9449H40.6948ZM40.6948 26.6363V26.9363H45.8823V26.6363V26.3363H40.6948V26.6363ZM45.8823 26.6363H45.5823V31.9449H45.8823H46.1823V26.6363H45.8823ZM40.1948 31.9449V31.6449H35.0073V31.9449V32.2449H40.1948V31.9449ZM35.0073 31.9449H35.3073V26.6363H35.0073H34.7073V31.9449H35.0073ZM35.0073 26.6363V26.9363H40.1948V26.6363V26.3363H35.0073V26.6363ZM40.1948 26.6363H39.8948V31.9449H40.1948H40.4948V26.6363H40.1948ZM34.5073 31.9449V31.6449H29.3198V31.9449V32.2449H34.5073V31.9449ZM29.3198 31.9449H29.6198V26.6363H29.3198H29.0198V31.9449H29.3198ZM29.3198 26.6363V26.9363H34.5073V26.6363V26.3363H29.3198V26.6363ZM34.5073 26.6363H34.2073V31.9449H34.5073H34.8073V26.6363H34.5073ZM28.8198 31.9449V31.6449H23.6323V31.9449V32.2449H28.8198V31.9449ZM23.6323 31.9449H23.9323V26.6363H23.6323H23.3323V31.9449H23.6323ZM23.6323 26.6363V26.9363H28.8198V26.6363V26.3363H23.6323V26.6363ZM28.8198 26.6363H28.5198V31.9449H28.8198H29.1198V26.6363H28.8198ZM23.1323 31.9449V31.6449H17.9448V31.9449V32.2449H23.1323V31.9449ZM17.9448 31.9449H18.2448V26.6363H17.9448H17.6448V31.9449H17.9448ZM17.9448 26.6363V26.9363H23.1323V26.6363V26.3363H17.9448V26.6363ZM23.1323 26.6363H22.8323V31.9449H23.1323H23.4323V26.6363H23.1323ZM17.4448 31.9449V31.6449H12.2573V31.9449V32.2449H17.4448V31.9449ZM12.2573 31.9449H12.5573V26.6363H12.2573H11.9573V31.9449H12.2573ZM12.2573 26.6363V26.9363H17.4448V26.6363V26.3363H12.2573V26.6363ZM17.4448 26.6363H17.1448V31.9449H17.4448H17.7448V26.6363H17.4448ZM11.7573 31.9449V31.6449H6.5698V31.9449V32.2449H11.7573V31.9449ZM6.5698 31.9449H6.8698V26.6363H6.5698H6.2698V31.9449H6.5698ZM6.5698 26.6363V26.9363H11.7573V26.6363V26.3363H6.5698V26.6363ZM11.7573 26.6363H11.4573V31.9449H11.7573H12.0573V26.6363H11.7573ZM3.558 59.0465L3.84376 59.1378L4.50783 57.0597L4.22206 56.9684L3.9363 56.8771L3.27223 58.9552L3.558 59.0465ZM4.22206 56.9684V57.2684H10.5737V56.9684V56.6684H4.22206V56.9684ZM10.5737 56.9684L10.2775 56.9208L9.53527 61.538L9.83147 61.5856L10.1277 61.6332L10.8699 57.016L10.5737 56.9684ZM9.83147 61.5856V61.2856H2.74167V61.5856V61.8856H9.83147V61.5856ZM2.74167 61.5856L3.02727 61.6774L3.8436 59.1383L3.558 59.0465L3.2724 58.9547L2.45607 61.4938L2.74167 61.5856ZM11.0814 56.9684V57.2684H17.4447V56.9684V56.6684H11.0814V56.9684ZM17.4447 56.9684H17.1447V61.5856H17.4447H17.7447V56.9684H17.4447ZM17.4447 61.5856V61.2856H10.3392V61.5856V61.8856H17.4447V61.5856ZM10.3392 61.5856L10.6354 61.6332L11.3776 57.016L11.0814 56.9684L10.7852 56.9208L10.043 61.538L10.3392 61.5856ZM17.9447 53.4489V53.7489H23.7416V53.4489V53.1489H17.9447V53.4489ZM23.7416 53.4489L23.4454 53.4964L23.9298 56.5159L24.226 56.4684L24.5222 56.4209L24.0378 53.4014L23.7416 53.4489ZM24.226 56.4684V56.1684H17.9448V56.4684V56.7684H24.226V56.4684ZM17.9448 56.4684L18.2448 56.4684L18.2447 53.4489L17.9447 53.4489L17.6447 53.4489L17.6448 56.4684L17.9448 56.4684ZM25.5541 61.5856L25.8503 61.5382L25.1121 56.921L24.8158 56.9684L24.5196 57.0158L25.2579 61.633L25.5541 61.5856ZM24.8158 56.9684V57.2684H31.1674V56.9684V56.6684H24.8158V56.9684ZM31.1674 56.9684L30.8817 57.0597L31.5457 59.1378L31.8315 59.0465L32.1172 58.9552L31.4532 56.8771L31.1674 56.9684ZM31.8315 59.0465L31.5458 59.1379L32.3583 61.677L32.644 61.5856L32.9297 61.4942L32.1172 58.9551L31.8315 59.0465ZM32.644 61.5856V61.2856H25.5541V61.5856V61.8856H32.644V61.5856ZM33.1713 61.5856L33.4571 61.4943L32.793 59.4162L32.5072 59.5075L32.2215 59.5988L32.8855 61.6769L33.1713 61.5856ZM32.5072 59.5075L32.793 59.4161L31.9805 56.877L31.6947 56.9684L31.409 57.0598L32.2215 59.5989L32.5072 59.5075ZM31.6947 56.9684V57.2684H38.0189V56.9684V56.6684H31.6947V56.9684ZM38.0189 56.9684L37.7486 57.0985L39.9713 61.7157L40.2416 61.5856L40.5119 61.4555L38.2892 56.8383L38.0189 56.9684ZM40.2416 61.5856V61.2856H33.1713V61.5856V61.8856H40.2416V61.5856ZM38.3315 56.4684L38.6018 56.3383L37.1487 53.3188L36.8784 53.4489L36.6081 53.579L38.0612 56.5985L38.3315 56.4684ZM36.8784 53.4489V53.7489H42.605V53.4489V53.1489H36.8784V53.4489ZM42.605 53.4489L42.3524 53.6107L44.286 56.6302L44.5386 56.4684L44.7912 56.3066L42.8576 53.2871L42.605 53.4489ZM44.5386 56.4684V56.1684H38.3315V56.4684V56.7684H44.5386V56.4684ZM45.1323 56.4684L45.3849 56.3066L43.4513 53.2871L43.1987 53.4489L42.9461 53.6107L44.8797 56.6302L45.1323 56.4684ZM43.1987 53.4489V53.7489H48.8315V53.4489V53.1489H43.1987V53.4489ZM48.8315 53.4489L48.6194 53.661C48.6858 53.7275 48.7614 53.7491 48.7852 53.7559C48.7923 53.7579 48.7988 53.7596 48.8023 53.7606C48.8068 53.7617 48.8078 53.762 48.8088 53.7623C48.8107 53.7628 48.8028 53.7608 48.7914 53.7559L48.9096 53.4802L49.0278 53.2044C49.0027 53.1937 48.9807 53.1873 48.9684 53.1839C48.9623 53.1822 48.9563 53.1806 48.9538 53.18C48.9503 53.1791 48.9498 53.1789 48.95 53.179C48.9501 53.179 48.9619 53.1822 48.9779 53.1899C48.9953 53.1983 49.0196 53.2127 49.0436 53.2368L48.8315 53.4489ZM48.9096 53.4802L48.6756 53.6679L51.0701 56.6523L51.3041 56.4646L51.5381 56.2768L49.1436 53.2924L48.9096 53.4802ZM51.3041 56.4646L51.3039 56.1646L45.1321 56.1684L45.1323 56.4684L45.1325 56.7684L51.3043 56.7646L51.3041 56.4646ZM52.0737 48.484H52.3737V40.5231H52.0737H51.7737V48.484H52.0737ZM52.0737 40.5231L51.9676 40.8037L55.5731 42.167L55.6792 41.8864L55.7853 41.6058L52.1798 40.2425L52.0737 40.5231ZM55.6792 41.8864H55.3792V51.5153H55.6792H55.9792V41.8864H55.6792ZM55.6792 51.5153L55.8722 51.2857L52.2668 48.2544L52.0737 48.484L51.8806 48.7136L55.4861 51.7449L55.6792 51.5153ZM56.1753 42.0699L56.0691 42.3505L61.1238 44.2646L61.23 43.984L61.3362 43.7034L56.2815 41.7893L56.1753 42.0699ZM61.23 43.984H60.93V56.179H61.23H61.53V43.984H61.23ZM61.23 56.179L61.4231 55.9494L56.3684 51.6994L56.1753 51.929L55.9822 52.1586L61.0369 56.4086L61.23 56.179ZM56.1753 51.929H56.4753V42.0699H56.1753H55.8753V51.929H56.1753ZM56.1753 41.5387H56.4753V32.4449H56.1753H55.8753V41.5387H56.1753ZM56.1753 32.4449V32.7449H61.23V32.4449V32.1449H56.1753V32.4449ZM61.23 32.4449H60.93V43.4489H61.23H61.53V32.4449H61.23ZM61.23 43.4489L61.336 43.1682L56.2813 41.258L56.1753 41.5387L56.0692 41.8193L61.1239 43.7295L61.23 43.4489ZM56.1753 31.9449H56.4753V23.6168H56.1753H55.8753V31.9449H56.1753ZM56.1753 23.6168L56.2621 23.9039L61.3168 22.3766L61.23 22.0895L61.1432 21.8023L56.0885 23.3296L56.1753 23.6168ZM61.23 22.0895H60.93V31.945H61.23H61.53V22.0895H61.23ZM61.23 31.945L61.23 31.645L56.1753 31.6449L56.1753 31.9449L56.1753 32.2449L61.23 32.245L61.23 31.945ZM61.2339 21.5659L61.1471 21.2787L56.0924 22.806L56.1792 23.0932L56.266 23.3803L61.3207 21.853L61.2339 21.5659ZM56.1792 23.0932L56.4792 23.093L56.4753 14.1789L56.1753 14.1791L55.8753 14.1792L55.8792 23.0933L56.1792 23.0932ZM56.1753 14.1791L56.3419 14.4285L61.3966 11.0535L61.23 10.8041L61.0634 10.5546L56.0087 13.9296L56.1753 14.1791ZM61.23 10.8041L60.93 10.8042L60.9339 21.566L61.2339 21.5659L61.5339 21.5657L61.53 10.8039L61.23 10.8041ZM55.6753 23.2456L55.5885 22.9584L51.983 24.0482L52.0698 24.3354L52.1566 24.6225L55.7621 23.5327L55.6753 23.2456ZM52.0698 24.3354H52.3698V16.9174H52.0698H51.7698V24.3354H52.0698ZM52.0698 16.9174L52.2363 17.1669L55.8418 14.7607L55.6753 14.5112L55.5088 14.2616L51.9033 16.6678L52.0698 16.9174ZM55.6753 14.5112H55.3753V23.2456H55.6753H55.9753V14.5112H55.6753ZM52.0737 16.3159H52.3737V9.49555H52.0737H51.7737V16.3159H52.0737ZM52.0737 9.49555L52.2798 9.7135L55.8853 6.3033L55.6792 6.08535L55.473 5.8674L51.8675 9.2776L52.0737 9.49555ZM55.6792 6.08535H55.3792V13.9096H55.6792H55.9792V6.08535H55.6792ZM55.6792 13.9096L55.5127 13.66L51.9072 16.0663L52.0737 16.3159L52.2402 16.5654L55.8457 14.1591L55.6792 13.9096ZM51.5737 16.6479L51.407 16.3985L49.0867 17.9493L49.2534 18.1987L49.4201 18.4481L51.7404 16.8973L51.5737 16.6479ZM49.2534 18.1987H49.5534V12.1635H49.2534H48.9534V18.1987H49.2534ZM49.2534 12.1635L49.4596 12.3814L51.7799 10.1861L51.5737 9.96818L51.3675 9.75026L49.0472 11.9456L49.2534 12.1635ZM51.5737 9.96818H51.2737V16.6479H51.5737H51.8737V9.96818H51.5737ZM48.7534 18.5307L48.587 18.2811L47.4151 19.0623L47.5815 19.3119L47.7479 19.5616L48.9198 18.7803L48.7534 18.5307ZM47.5815 19.3119H47.8815V13.7455H47.5815H47.2815V19.3119H47.5815ZM47.5815 13.7455L47.7877 13.9634L48.9596 12.854L48.7534 12.6361L48.5472 12.4183L47.3752 13.5277L47.5815 13.7455ZM48.7534 12.6361H48.4534V18.5307H48.7534H49.0534V12.6361H48.7534ZM47.0815 19.644L46.9144 19.3948L46.2152 19.8635L46.3823 20.1127L46.5493 20.3619L47.2485 19.8932L47.0815 19.644ZM46.3823 20.1127H46.6823V14.8783H46.3823H46.0823V20.1127H46.3823ZM46.3823 14.8783L46.5889 15.0959L47.2881 14.4318L47.0815 14.2143L46.8749 13.9967L46.1757 14.6608L46.3823 14.8783ZM47.0815 14.2143H46.7815V19.644H47.0815H47.3815V14.2143H47.0815ZM45.8823 26.1401V25.8401H40.6948V26.1401V26.4401H45.8823V26.1401ZM40.6948 26.1401H40.9948V20.8315H40.6948H40.3948V26.1401H40.6948ZM40.6948 20.8315V21.1315H45.8823V20.8315V20.5315H40.6948V20.8315ZM45.8823 20.8315H45.5823V26.1401H45.8823H46.1823V20.8315H45.8823ZM40.1948 26.1401V25.8401H35.0073V26.1401V26.4401H40.1948V26.1401ZM35.0073 26.1401H35.3073V20.8315H35.0073H34.7073V26.1401H35.0073ZM35.0073 20.8315V21.1315H40.1948V20.8315V20.5315H35.0073V20.8315ZM40.1948 20.8315H39.8948V26.1401H40.1948H40.4948V20.8315H40.1948ZM34.5073 26.1401V25.8401H29.3198V26.1401V26.4401H34.5073V26.1401ZM29.3198 26.1401H29.6198V20.8315H29.3198H29.0198V26.1401H29.3198ZM29.3198 20.8315V21.1315H34.5073V20.8315V20.5315H29.3198V20.8315ZM34.5073 20.8315H34.2073V26.1401H34.5073H34.8073V20.8315H34.5073ZM28.8198 26.1401V25.8401H23.6323V26.1401V26.4401H28.8198V26.1401ZM23.6323 26.1401H23.9323V20.8315H23.6323H23.3323V26.1401H23.6323ZM23.6323 20.8315V21.1315H28.8198V20.8315V20.5315H23.6323V20.8315ZM28.8198 20.8315H28.5198V26.1401H28.8198H29.1198V20.8315H28.8198ZM23.1323 26.1401V25.8401H17.9448V26.1401V26.4401H23.1323V26.1401ZM17.9448 26.1401H18.2448V20.8315H17.9448H17.6448V26.1401H17.9448ZM17.9448 20.8315V21.1315H23.1323V20.8315V20.5315H17.9448V20.8315ZM23.1323 20.8315H22.8323V26.1401H23.1323H23.4323V20.8315H23.1323ZM17.4448 26.1401V25.8401H12.2573V26.1401V26.4401H17.4448V26.1401ZM12.2573 26.1401H12.5573V20.8315H12.2573H11.9573V26.1401H12.2573ZM12.2573 20.8315V21.1315H17.4448V20.8315V20.5315H12.2573V20.8315ZM17.4448 20.8315H17.1448V26.1401H17.4448H17.7448V20.8315H17.4448ZM11.7573 26.1401V25.8401H6.5698V26.1401V26.4401H11.7573V26.1401ZM6.5698 26.1401H6.8698V20.8315H6.5698H6.2698V26.1401H6.5698ZM6.5698 20.8315V21.1315H11.7573V20.8315V20.5315H6.5698V20.8315ZM11.7573 20.8315H11.4573V26.1401H11.7573H12.0573V20.8315H11.7573ZM1.7067 64.8275L1.99238 64.919L2.87129 62.1768L2.58561 62.0853L2.29992 61.9937L1.42101 64.7359L1.7067 64.8275ZM2.58561 62.0853V62.3853H9.75751V62.0853V61.7853H2.58561V62.0853ZM9.75751 62.0853L9.4613 62.0378L8.4301 68.4675L8.72631 68.515L9.02253 68.5625L10.0537 62.1328L9.75751 62.0853ZM8.72631 68.515V68.215H0.523209V68.515V68.815H8.72631V68.515ZM0.523209 68.515L0.808857 68.6067L1.99235 64.9192L1.7067 64.8275L1.42105 64.7358L0.23756 68.4233L0.523209 68.515ZM17.9447 56.9681V57.2681H24.3041V56.9681V56.6681H17.9447V56.9681ZM24.3041 56.9681L24.0079 57.0155L24.7461 61.6326L25.0424 61.5853L25.3386 61.5379L24.6003 56.9207L24.3041 56.9681ZM25.0424 61.5853V61.2853H17.9408V61.5853V61.8853H25.0424V61.5853ZM17.9408 61.5853L18.2408 61.5855L18.2447 56.9683L17.9447 56.9681L17.6447 56.9678L17.6408 61.585L17.9408 61.5853ZM25.6361 62.0853V62.3853H32.808V62.0853V61.7853H25.6361V62.0853ZM32.808 62.0853L32.5223 62.1768L33.4012 64.919L33.6869 64.8275L33.9726 64.7359L33.0937 61.9937L32.808 62.0853ZM33.6869 64.8275L33.4013 64.9192L34.5849 68.6067L34.8705 68.515L35.1562 68.4233L33.9726 64.7358L33.6869 64.8275ZM34.8705 68.515V68.215H26.6713V68.515V68.815H34.8705V68.515ZM26.6713 68.515L26.9675 68.4673L25.9323 62.0376L25.6361 62.0853L25.3399 62.133L26.3751 68.5627L26.6713 68.515ZM35.3939 68.5189L35.6796 68.4273L34.8007 65.6851L34.515 65.7767L34.2293 65.8683L35.1082 68.6104L35.3939 68.5189ZM34.515 65.7767L34.8006 65.685L33.617 61.9975L33.3314 62.0892L33.0457 62.1809L34.2293 65.8684L34.515 65.7767ZM33.3314 62.0892V62.3892H40.4759V62.0892V61.7892H33.3314V62.0892ZM40.4759 62.0892L40.2056 62.2193L43.2993 68.649L43.5697 68.5189L43.84 68.3888L40.7462 61.9591L40.4759 62.0892ZM43.5697 68.5189V68.2189H35.3939V68.5189V68.8189H43.5697V68.5189ZM40.7923 61.5853L41.0626 61.4552L38.8399 56.838L38.5696 56.9681L38.2993 57.0982L40.522 61.7154L40.7923 61.5853ZM38.5696 56.9681V57.2681H44.8587V56.9681V56.6681H38.5696V56.9681ZM44.8587 56.9681L44.6063 57.1302L47.5711 61.7474L47.8235 61.5853L48.0759 61.4232L45.1111 56.806L44.8587 56.9681ZM47.8235 61.5853V61.2853H40.7923V61.5853V61.8853H47.8235V61.5853ZM48.4173 61.5853L48.6697 61.4232L45.7049 56.806L45.4525 56.9681L45.2001 57.1302L48.1649 61.7474L48.4173 61.5853ZM45.4525 56.9681V57.2681H51.7025V56.9681V56.6681H45.4525V56.9681ZM51.7025 56.9681L51.4685 57.1558L55.1716 61.773L55.4056 61.5853L55.6396 61.3976L51.9365 56.7804L51.7025 56.9681ZM55.4056 61.5853V61.2853H48.4173V61.5853V61.8853H55.4056V61.5853ZM56.1751 52.5853L55.982 52.8149L61.0367 57.0649L61.2298 56.8353L61.4229 56.6057L56.3682 52.3557L56.1751 52.5853ZM61.2298 56.8353H60.9298V68.0543H61.2298H61.5298V56.8353H61.2298ZM61.2298 68.0543L61.4639 67.8667L56.4092 61.5581L56.1751 61.7457L55.941 61.9333L60.9957 68.2419L61.2298 68.0543ZM56.1751 61.7457H56.4751V52.5853H56.1751H55.8751V61.7457H56.1751ZM61.2337 10.2023L61.0671 9.95279L56.0124 13.3278L56.179 13.5773L56.3456 13.8268L61.4003 10.4518L61.2337 10.2023ZM56.179 13.5773H56.479V5.61248H56.179H55.879V13.5773H56.179ZM56.179 5.61248L56.3851 5.83043L61.4398 1.04923L61.2337 0.831282L61.0275 0.613335L55.9728 5.39454L56.179 5.61248ZM61.2337 0.831282H60.9337V10.2023H61.2337H61.5337V0.831282H61.2337ZM45.8817 20.3313V20.0313H40.6942V20.3313V20.6313H45.8817V20.3313ZM40.6942 20.3313H40.9942V15.0227H40.6942H40.3942V20.3313H40.6942ZM40.6942 15.0227V15.3227H45.8817V15.0227V14.7227H40.6942V15.0227ZM45.8817 15.0227H45.5817V20.3313H45.8817H46.1817V15.0227H45.8817ZM40.1942 20.3313V20.0313H35.0067V20.3313V20.6313H40.1942V20.3313ZM35.0067 20.3313H35.3067V15.0227H35.0067H34.7067V20.3313H35.0067ZM35.0067 15.0227V15.3227H40.1942V15.0227V14.7227H35.0067V15.0227ZM40.1942 15.0227H39.8942V20.3313H40.1942H40.4942V15.0227H40.1942ZM34.5067 20.3313V20.0313H29.3192V20.3313V20.6313H34.5067V20.3313ZM29.3192 20.3313H29.6192V15.0227H29.3192H29.0192V20.3313H29.3192ZM29.3192 15.0227V15.3227H34.5067V15.0227V14.7227H29.3192V15.0227ZM34.5067 15.0227H34.2067V20.3313H34.5067H34.8067V15.0227H34.5067ZM28.8192 20.3313V20.0313H23.6317V20.3313V20.6313H28.8192V20.3313ZM23.6317 20.3313H23.9317V15.0227H23.6317H23.3317V20.3313H23.6317ZM23.6317 15.0227V15.3227H28.8192V15.0227V14.7227H23.6317V15.0227ZM28.8192 15.0227H28.5192V20.3313H28.8192H29.1192V15.0227H28.8192ZM23.1317 20.3313V20.0313H17.9442V20.3313V20.6313H23.1317V20.3313ZM17.9442 20.3313H18.2442V15.0227H17.9442H17.6442V20.3313H17.9442ZM17.9442 15.0227V15.3227H23.1317V15.0227V14.7227H17.9442V15.0227ZM23.1317 15.0227H22.8317V20.3313H23.1317H23.4317V15.0227H23.1317ZM17.4442 20.3313V20.0313H12.2567V20.3313V20.6313H17.4442V20.3313ZM12.2567 20.3313H12.5567V15.0227H12.2567H11.9567V20.3313H12.2567ZM12.2567 15.0227V15.3227H17.4442V15.0227V14.7227H12.2567V15.0227ZM17.4442 15.0227H17.1442V20.3313H17.4442H17.7442V15.0227H17.4442ZM11.7567 20.3313V20.0313H6.5692V20.3313V20.6313H11.7567V20.3313ZM6.5692 20.3313H6.8692V15.0227H6.5692H6.2692V20.3313H6.5692ZM6.5692 15.0227V15.3227H11.7567V15.0227V14.7227H6.5692V15.0227ZM11.7567 15.0227H11.4567V20.3313H11.7567H12.0567V15.0227H11.7567ZM17.944 62.0855V62.3855H25.1276V62.0855V61.7855H17.944V62.0855ZM25.1276 62.0855L24.8314 62.133L25.8626 68.5627L26.1588 68.5152L26.455 68.4677L25.4238 62.038L25.1276 62.0855ZM26.1588 68.5152V68.2152H17.944V68.5152V68.8152H26.1588V68.5152ZM17.944 68.5152H18.244V62.0855H17.944H17.644V68.5152H17.944ZM44.124 68.5191L44.3943 68.389L41.3005 61.9593L41.0302 62.0894L40.7598 62.2195L43.8537 68.6492L44.124 68.5191ZM41.0302 62.0894V62.3894H48.1396V62.0894V61.7894H41.0302V62.0894ZM48.1396 62.0894L47.8871 62.2514L52.0121 68.6811L52.2646 68.5191L52.5171 68.3571L48.3921 61.9274L48.1396 62.0894ZM52.2646 68.5191V68.2191H44.124V68.5191V68.8191H52.2646V68.5191ZM52.8623 68.5191L53.1148 68.3571L48.9898 61.9274L48.7373 62.0894L48.4848 62.2514L52.6098 68.6811L52.8623 68.5191ZM48.7373 62.0894V62.3894H55.7178V62.0894V61.7894H48.7373V62.0894ZM55.7178 62.0894L55.4469 62.2184C55.5197 62.3711 55.6743 62.528 55.9128 62.5376L55.9248 62.2378L55.9368 61.9381C55.9433 61.9383 55.9515 61.9397 55.9602 61.9429C55.9688 61.9461 55.9758 61.9502 55.9809 61.9541C55.9907 61.9615 55.9913 61.9661 55.9886 61.9604L55.7178 62.0894ZM55.9248 62.2378L55.6907 62.4255L60.7259 68.7067L60.96 68.519L61.1941 68.3314L56.1589 62.0502L55.9248 62.2378ZM60.96 68.519L60.9602 68.219L52.8625 68.2151L52.8623 68.5151L52.8622 68.8151L60.9599 68.819L60.96 68.519ZM52.8623 68.5151L52.5623 68.5128L52.5623 68.5168L52.8623 68.5191L53.1623 68.5214L53.1623 68.5174L52.8623 68.5151Z" fill="black" mask="url(#path-1-inside-1_35_311)"/>
</svg>
