<svg width="867" height="208" viewBox="0 0 867 208" fill="none" xmlns="http://www.w3.org/2000/svg">
<g clip-path="url(#clip0_36_3008)">
<path d="M232.887 30.4764L286.741 87.738L281.062 109.649H264.83C250.586 109.649 239.37 112.299 231.23 117.647C223.091 122.947 218.973 130.661 218.973 140.74C218.973 150.063 222.239 157.446 228.817 162.983C235.347 168.472 243.582 171.264 253.472 171.264C264.688 171.264 274.437 169.04 282.671 164.592C290.953 160.143 298.666 153.612 305.907 145.094L330.421 167.904C321.902 178.173 311.396 186.55 298.95 193.128C286.504 199.658 271.55 202.971 254.088 202.971C243.818 202.971 234.401 201.409 225.741 198.286C217.08 195.163 209.745 190.809 203.641 185.177C197.536 179.546 192.803 172.921 189.396 165.207C185.989 157.54 184.285 149.022 184.285 139.699C184.285 130.377 185.894 122.426 189.112 115.754C192.33 109.081 196.637 103.544 202.079 99.0957C207.474 94.6472 213.768 91.098 220.866 88.5425C228.012 85.987 235.347 84.2361 242.966 83.2896L191.431 30.3818V0H319.205V30.4764H232.887Z" fill="#FFF9DF"/>
<path d="M700.716 33.6H617.379L689.878 206.994H650.553L579.472 33.1267H560.543V1.98779H700.716V33.6473V33.6Z" fill="#FFF9DF"/>
<path d="M75.8598 175.429C85.2298 175.429 93.0856 172.637 99.4269 167.1C105.768 161.563 108.939 153.707 108.939 143.58C108.939 138.895 108.229 134.494 106.904 130.424C105.532 126.354 103.355 122.142 100.326 117.836C97.2974 113.529 93.3222 109.034 88.4479 104.254C83.5735 99.4743 77.6107 94.174 70.6068 88.3059L0 28.3942V0H148.17V31.6122H50.6363L92.8016 66.7736C101.793 74.2034 109.649 81.018 116.369 87.2648C123.089 93.5115 128.673 99.6636 133.074 105.721C137.475 111.778 140.74 118.025 142.87 124.461C145 130.897 146.088 138.232 146.088 146.419C146.088 155.6 144.479 163.929 141.261 171.453C138.043 178.978 133.5 185.461 127.632 190.903C121.764 196.346 114.665 200.558 106.242 203.492C97.8653 206.426 88.5898 207.893 78.4152 207.893C69.2345 207.893 61.0948 206.899 53.9489 204.959C46.8031 202.971 40.2724 200.179 34.3096 196.535C28.3469 192.891 22.8573 188.348 17.7464 182.953C12.6827 177.558 7.66643 171.406 2.79209 164.592L28.2522 144.668C36.2499 155.032 43.8217 162.699 50.9675 167.81C58.1134 172.873 66.3477 175.429 75.7178 175.429H75.8598Z" fill="#FFF9DF"/>
<path d="M834.798 0L720.133 136.292L733.715 167.952L831.438 50.0684L831.58 207.041H866.363V0H834.798Z" fill="#FFF9DF"/>
<path d="M506.887 154.039C493.636 168.425 474.659 177.464 453.6 177.464C413.565 177.464 381.053 145 381.053 104.917C381.053 64.8336 413.517 32.3696 453.6 32.3696C474.612 32.3696 493.541 41.3137 506.792 55.6055L527.425 34.9724C508.874 15.4277 482.704 3.1709 453.648 3.1709C397.475 3.1709 351.949 48.6962 351.949 104.869C351.949 161.043 397.475 206.568 453.648 206.568C482.799 206.568 509.064 194.311 527.614 174.624L506.981 153.991L506.887 154.039Z" fill="#FFF9DF"/>
</g>
<defs>
<clipPath id="clip0_36_3008">
<rect width="866.354" height="207.94" fill="white"/>
</clipPath>
</defs>
</svg>
